<svg xmlns="http://www.w3.org/2000/svg" xmlns:xlink="http://www.w3.org/1999/xlink" width="2000" zoomAndPan="magnify" viewBox="0 0 1500 449.999984" height="600" preserveAspectRatio="xMidYMid meet" version="1.0"><defs><g/><clipPath id="38d1ac0249"><path d="M 80.125 301.78125 L 118.375 301.78125 L 118.375 340.03125 L 80.125 340.03125 Z M 80.125 301.78125 " clip-rule="nonzero"/></clipPath><clipPath id="f96c36a5cb"><path d="M 446.582031 302.070312 L 484.832031 302.070312 L 484.832031 340.320312 L 446.582031 340.320312 Z M 446.582031 302.070312 " clip-rule="nonzero"/></clipPath><clipPath id="9d27891d1f"><path d="M 1236.164062 131.015625 L 1377 131.015625 L 1377 272 L 1236.164062 272 Z M 1236.164062 131.015625 " clip-rule="nonzero"/></clipPath><clipPath id="86ac60abc7"><path d="M 1330.011719 130.996094 C 1282.050781 130.996094 1285.042969 151.824219 1285.042969 151.824219 L 1285.097656 173.40625 L 1330.863281 173.40625 L 1330.863281 179.882812 L 1266.917969 179.882812 C 1266.917969 179.882812 1236.230469 176.398438 1236.230469 224.859375 C 1236.230469 273.328125 1263.015625 271.609375 1263.015625 271.609375 L 1279.003906 271.609375 L 1279.003906 249.117188 C 1279.003906 249.117188 1278.140625 222.289062 1305.359375 222.289062 L 1350.753906 222.289062 C 1350.753906 222.289062 1376.253906 222.703125 1376.253906 197.605469 L 1376.253906 156.109375 C 1376.253906 156.109375 1380.128906 130.996094 1330.011719 130.996094 Z M 1304.773438 145.507812 C 1309.324219 145.507812 1313.003906 149.191406 1313.003906 153.753906 C 1313.003906 158.3125 1309.324219 162 1304.773438 162 C 1300.21875 162 1296.539062 158.3125 1296.539062 153.753906 C 1296.539062 149.191406 1300.21875 145.507812 1304.773438 145.507812 Z M 1304.773438 145.507812 " clip-rule="nonzero"/></clipPath><linearGradient x1="0.00416807" gradientTransform="matrix(140.091792, 0, 0, 140.61941, 1236.230332, 130.996205)" y1="-0.00405758" x2="1.027757" gradientUnits="userSpaceOnUse" y2="1.01158" id="634f29c1d5"><stop stop-opacity="1" stop-color="rgb(21.998596%, 49.398804%, 72.198486%)" offset="0"/><stop stop-opacity="1" stop-color="rgb(21.99707%, 49.383545%, 72.171021%)" offset="0.125"/><stop stop-opacity="1" stop-color="rgb(21.986389%, 49.269104%, 71.974182%)" offset="0.140625"/><stop stop-opacity="1" stop-color="rgb(21.966553%, 49.072266%, 71.633911%)" offset="0.15625"/><stop stop-opacity="1" stop-color="rgb(21.948242%, 48.875427%, 71.29364%)" offset="0.171875"/><stop stop-opacity="1" stop-color="rgb(21.928406%, 48.678589%, 70.953369%)" offset="0.1875"/><stop stop-opacity="1" stop-color="rgb(21.910095%, 48.48175%, 70.611572%)" offset="0.203125"/><stop stop-opacity="1" stop-color="rgb(21.890259%, 48.286438%, 70.271301%)" offset="0.21875"/><stop stop-opacity="1" stop-color="rgb(21.870422%, 48.0896%, 69.93103%)" offset="0.234375"/><stop stop-opacity="1" stop-color="rgb(21.852112%, 47.892761%, 69.590759%)" offset="0.25"/><stop stop-opacity="1" stop-color="rgb(21.832275%, 47.695923%, 69.250488%)" offset="0.265625"/><stop stop-opacity="1" stop-color="rgb(21.813965%, 47.499084%, 68.908691%)" offset="0.28125"/><stop stop-opacity="1" stop-color="rgb(21.794128%, 47.302246%, 68.56842%)" offset="0.296875"/><stop stop-opacity="1" stop-color="rgb(21.775818%, 47.105408%, 68.228149%)" offset="0.3125"/><stop stop-opacity="1" stop-color="rgb(21.755981%, 46.908569%, 67.887878%)" offset="0.328125"/><stop stop-opacity="1" stop-color="rgb(21.736145%, 46.711731%, 67.546082%)" offset="0.34375"/><stop stop-opacity="1" stop-color="rgb(21.717834%, 46.514893%, 67.205811%)" offset="0.359375"/><stop stop-opacity="1" stop-color="rgb(21.697998%, 46.31958%, 66.86554%)" offset="0.375"/><stop stop-opacity="1" stop-color="rgb(21.679688%, 46.122742%, 66.525269%)" offset="0.390625"/><stop stop-opacity="1" stop-color="rgb(21.659851%, 45.925903%, 66.184998%)" offset="0.40625"/><stop stop-opacity="1" stop-color="rgb(21.641541%, 45.729065%, 65.843201%)" offset="0.421875"/><stop stop-opacity="1" stop-color="rgb(21.621704%, 45.532227%, 65.50293%)" offset="0.4375"/><stop stop-opacity="1" stop-color="rgb(21.601868%, 45.335388%, 65.162659%)" offset="0.453125"/><stop stop-opacity="1" stop-color="rgb(21.583557%, 45.13855%, 64.822388%)" offset="0.46875"/><stop stop-opacity="1" stop-color="rgb(21.563721%, 44.941711%, 64.482117%)" offset="0.484375"/><stop stop-opacity="1" stop-color="rgb(21.54541%, 44.744873%, 64.14032%)" offset="0.494335"/><stop stop-opacity="1" stop-color="rgb(21.536255%, 44.647217%, 63.970947%)" offset="0.5"/><stop stop-opacity="1" stop-color="rgb(21.525574%, 44.548035%, 63.800049%)" offset="0.505665"/><stop stop-opacity="1" stop-color="rgb(21.516418%, 44.450378%, 63.630676%)" offset="0.515625"/><stop stop-opacity="1" stop-color="rgb(21.505737%, 44.352722%, 63.459778%)" offset="0.53125"/><stop stop-opacity="1" stop-color="rgb(21.487427%, 44.155884%, 63.119507%)" offset="0.546875"/><stop stop-opacity="1" stop-color="rgb(21.46759%, 43.959045%, 62.77771%)" offset="0.5625"/><stop stop-opacity="1" stop-color="rgb(21.44928%, 43.762207%, 62.437439%)" offset="0.578125"/><stop stop-opacity="1" stop-color="rgb(21.429443%, 43.565369%, 62.097168%)" offset="0.59375"/><stop stop-opacity="1" stop-color="rgb(21.411133%, 43.36853%, 61.756897%)" offset="0.609375"/><stop stop-opacity="1" stop-color="rgb(21.391296%, 43.171692%, 61.416626%)" offset="0.625"/><stop stop-opacity="1" stop-color="rgb(21.37146%, 42.974854%, 61.074829%)" offset="0.640625"/><stop stop-opacity="1" stop-color="rgb(21.353149%, 42.778015%, 60.734558%)" offset="0.65625"/><stop stop-opacity="1" stop-color="rgb(21.333313%, 42.582703%, 60.394287%)" offset="0.671875"/><stop stop-opacity="1" stop-color="rgb(21.315002%, 42.385864%, 60.054016%)" offset="0.6875"/><stop stop-opacity="1" stop-color="rgb(21.295166%, 42.189026%, 59.713745%)" offset="0.703125"/><stop stop-opacity="1" stop-color="rgb(21.276855%, 41.992188%, 59.371948%)" offset="0.71875"/><stop stop-opacity="1" stop-color="rgb(21.257019%, 41.795349%, 59.031677%)" offset="0.734375"/><stop stop-opacity="1" stop-color="rgb(21.237183%, 41.598511%, 58.691406%)" offset="0.75"/><stop stop-opacity="1" stop-color="rgb(21.218872%, 41.401672%, 58.351135%)" offset="0.765625"/><stop stop-opacity="1" stop-color="rgb(21.203613%, 41.25061%, 58.09021%)" offset="0.78125"/><stop stop-opacity="1" stop-color="rgb(21.199036%, 41.19873%, 57.998657%)" offset="0.8125"/><stop stop-opacity="1" stop-color="rgb(21.199036%, 41.19873%, 57.998657%)" offset="0.875"/><stop stop-opacity="1" stop-color="rgb(21.199036%, 41.19873%, 57.998657%)" offset="1"/></linearGradient><clipPath id="b43c9f1ddb"><path d="M 1285 178 L 1425.160156 178 L 1425.160156 319.265625 L 1285 319.265625 Z M 1285 178 " clip-rule="nonzero"/></clipPath><clipPath id="d823cc5fec"><path d="M 1331.371094 319.214844 C 1379.328125 319.214844 1376.332031 298.382812 1376.332031 298.382812 L 1376.28125 276.800781 L 1330.515625 276.800781 L 1330.515625 270.328125 L 1394.457031 270.328125 C 1394.457031 270.328125 1425.148438 273.808594 1425.148438 225.347656 C 1425.148438 176.882812 1398.363281 178.601562 1398.363281 178.601562 L 1382.378906 178.601562 L 1382.378906 201.089844 C 1382.378906 201.089844 1383.234375 227.921875 1356.019531 227.921875 L 1310.621094 227.921875 C 1310.621094 227.921875 1285.121094 227.503906 1285.121094 252.605469 L 1285.121094 294.101562 C 1285.121094 294.101562 1281.25 319.214844 1331.371094 319.214844 Z M 1356.605469 304.703125 C 1352.054688 304.703125 1348.371094 301.011719 1348.371094 296.457031 C 1348.371094 291.890625 1352.054688 288.210938 1356.605469 288.210938 C 1361.160156 288.210938 1364.839844 291.890625 1364.839844 296.457031 C 1364.839844 301.011719 1361.160156 304.703125 1356.605469 304.703125 Z M 1356.605469 304.703125 " clip-rule="nonzero"/></clipPath><linearGradient x1="-0.0326454" gradientTransform="matrix(140.096034, 0, 0, 140.620127, 1285.053451, 178.594774)" y1="-0.00636598" x2="1.013978" gradientUnits="userSpaceOnUse" y2="0.985247" id="4cea4d2619"><stop stop-opacity="1" stop-color="rgb(100%, 87.799072%, 32.199097%)" offset="0"/><stop stop-opacity="1" stop-color="rgb(100%, 87.799072%, 32.199097%)" offset="0.125"/><stop stop-opacity="1" stop-color="rgb(100%, 87.799072%, 32.199097%)" offset="0.1875"/><stop stop-opacity="1" stop-color="rgb(100%, 87.759399%, 32.15332%)" offset="0.21875"/><stop stop-opacity="1" stop-color="rgb(100%, 87.590027%, 31.959534%)" offset="0.234375"/><stop stop-opacity="1" stop-color="rgb(100%, 87.332153%, 31.661987%)" offset="0.25"/><stop stop-opacity="1" stop-color="rgb(100%, 87.07428%, 31.365967%)" offset="0.265625"/><stop stop-opacity="1" stop-color="rgb(100%, 86.816406%, 31.06842%)" offset="0.28125"/><stop stop-opacity="1" stop-color="rgb(100%, 86.558533%, 30.7724%)" offset="0.296875"/><stop stop-opacity="1" stop-color="rgb(100%, 86.300659%, 30.474854%)" offset="0.3125"/><stop stop-opacity="1" stop-color="rgb(100%, 86.04126%, 30.177307%)" offset="0.328125"/><stop stop-opacity="1" stop-color="rgb(100%, 85.783386%, 29.881287%)" offset="0.34375"/><stop stop-opacity="1" stop-color="rgb(100%, 85.525513%, 29.58374%)" offset="0.359375"/><stop stop-opacity="1" stop-color="rgb(100%, 85.267639%, 29.28772%)" offset="0.375"/><stop stop-opacity="1" stop-color="rgb(100%, 85.009766%, 28.990173%)" offset="0.390625"/><stop stop-opacity="1" stop-color="rgb(100%, 84.751892%, 28.694153%)" offset="0.40625"/><stop stop-opacity="1" stop-color="rgb(100%, 84.494019%, 28.396606%)" offset="0.421875"/><stop stop-opacity="1" stop-color="rgb(100%, 84.236145%, 28.100586%)" offset="0.4375"/><stop stop-opacity="1" stop-color="rgb(100%, 83.978271%, 27.80304%)" offset="0.453125"/><stop stop-opacity="1" stop-color="rgb(100%, 83.720398%, 27.505493%)" offset="0.46875"/><stop stop-opacity="1" stop-color="rgb(100%, 83.460999%, 27.209473%)" offset="0.482837"/><stop stop-opacity="1" stop-color="rgb(100%, 83.332825%, 27.061462%)" offset="0.484375"/><stop stop-opacity="1" stop-color="rgb(100%, 83.203125%, 26.911926%)" offset="0.5"/><stop stop-opacity="1" stop-color="rgb(100%, 82.945251%, 26.615906%)" offset="0.515625"/><stop stop-opacity="1" stop-color="rgb(100%, 82.687378%, 26.318359%)" offset="0.517163"/><stop stop-opacity="1" stop-color="rgb(100%, 82.559204%, 26.170349%)" offset="0.53125"/><stop stop-opacity="1" stop-color="rgb(100%, 82.429504%, 26.022339%)" offset="0.546875"/><stop stop-opacity="1" stop-color="rgb(100%, 82.171631%, 25.724792%)" offset="0.5625"/><stop stop-opacity="1" stop-color="rgb(100%, 81.913757%, 25.428772%)" offset="0.578125"/><stop stop-opacity="1" stop-color="rgb(100%, 81.655884%, 25.131226%)" offset="0.59375"/><stop stop-opacity="1" stop-color="rgb(100%, 81.39801%, 24.835205%)" offset="0.609375"/><stop stop-opacity="1" stop-color="rgb(100%, 81.138611%, 24.537659%)" offset="0.625"/><stop stop-opacity="1" stop-color="rgb(100%, 80.880737%, 24.240112%)" offset="0.640625"/><stop stop-opacity="1" stop-color="rgb(100%, 80.622864%, 23.944092%)" offset="0.65625"/><stop stop-opacity="1" stop-color="rgb(100%, 80.36499%, 23.646545%)" offset="0.671875"/><stop stop-opacity="1" stop-color="rgb(100%, 80.107117%, 23.350525%)" offset="0.6875"/><stop stop-opacity="1" stop-color="rgb(100%, 79.849243%, 23.052979%)" offset="0.703125"/><stop stop-opacity="1" stop-color="rgb(100%, 79.59137%, 22.756958%)" offset="0.71875"/><stop stop-opacity="1" stop-color="rgb(100%, 79.333496%, 22.459412%)" offset="0.734375"/><stop stop-opacity="1" stop-color="rgb(100%, 79.075623%, 22.163391%)" offset="0.75"/><stop stop-opacity="1" stop-color="rgb(100%, 78.816223%, 21.865845%)" offset="0.765625"/><stop stop-opacity="1" stop-color="rgb(100%, 78.55835%, 21.568298%)" offset="0.78125"/><stop stop-opacity="1" stop-color="rgb(100%, 78.300476%, 21.272278%)" offset="0.796875"/><stop stop-opacity="1" stop-color="rgb(100%, 78.042603%, 20.974731%)" offset="0.8125"/><stop stop-opacity="1" stop-color="rgb(100%, 77.784729%, 20.678711%)" offset="0.828125"/><stop stop-opacity="1" stop-color="rgb(100%, 77.526855%, 20.381165%)" offset="0.84375"/><stop stop-opacity="1" stop-color="rgb(100%, 77.268982%, 20.085144%)" offset="0.859375"/><stop stop-opacity="1" stop-color="rgb(100%, 77.011108%, 19.787598%)" offset="0.875"/><stop stop-opacity="1" stop-color="rgb(100%, 76.753235%, 19.491577%)" offset="0.890625"/><stop stop-opacity="1" stop-color="rgb(100%, 76.560974%, 19.270325%)" offset="0.90625"/><stop stop-opacity="1" stop-color="rgb(100%, 76.499939%, 19.198608%)" offset="0.9375"/><stop stop-opacity="1" stop-color="rgb(100%, 76.499939%, 19.198608%)" offset="1"/></linearGradient></defs><rect x="-150" width="1800" fill="#ffffff" y="-44.999998" height="539.99998" fill-opacity="1"/><rect x="-150" width="1800" fill="#323537" y="-44.999998" height="539.99998" fill-opacity="1"/><g clip-path="url(#38d1ac0249)"><path fill="#ffffff" d="M 99.34375 340.21875 C 109.960938 340.21875 118.5625 331.613281 118.5625 321 C 118.5625 310.386719 109.960938 301.78125 99.34375 301.78125 C 88.730469 301.78125 80.125 310.386719 80.125 321 C 80.125 331.613281 88.730469 340.21875 99.34375 340.21875 Z M 90.617188 312.824219 L 99.34375 319.808594 L 108.074219 312.824219 L 108.324219 312.613281 L 90.363281 312.613281 Z M 109.257812 314.261719 L 109.59375 313.984375 L 109.59375 328.457031 C 109.59375 328.96875 109.175781 329.386719 108.664062 329.386719 L 90.027344 329.386719 C 89.511719 329.386719 89.09375 328.96875 89.09375 328.457031 L 89.09375 313.984375 L 89.429688 314.261719 L 89.445312 314.273438 L 98.761719 321.730469 C 99.101562 322 99.585938 322 99.925781 321.730469 L 109.246094 314.273438 Z M 109.257812 314.261719 " fill-opacity="1" fill-rule="evenodd"/></g><path fill="#ffffff" d="M 458.375 316.253906 L 460.511719 316.253906 C 460.757812 315.226562 461.074219 314.277344 461.453125 313.441406 C 460.730469 313.84375 460.058594 314.347656 459.460938 314.945312 C 459.054688 315.351562 458.691406 315.789062 458.375 316.253906 Z M 458.375 316.253906 " fill-opacity="1" fill-rule="nonzero"/><path fill="#ffffff" d="M 458.375 326.320312 C 458.691406 326.785156 459.054688 327.222656 459.460938 327.628906 C 460.058594 328.226562 460.730469 328.730469 461.453125 329.132812 C 461.074219 328.296875 460.757812 327.347656 460.511719 326.320312 Z M 458.375 326.320312 " fill-opacity="1" fill-rule="nonzero"/><path fill="#ffffff" d="M 473.222656 316.253906 C 472.90625 315.789062 472.546875 315.351562 472.140625 314.945312 C 471.539062 314.347656 470.867188 313.84375 470.148438 313.441406 C 470.523438 314.277344 470.84375 315.226562 471.089844 316.253906 Z M 473.222656 316.253906 " fill-opacity="1" fill-rule="nonzero"/><path fill="#ffffff" d="M 467.484375 314.234375 C 466.761719 312.789062 466.039062 312.320312 465.800781 312.320312 C 465.5625 312.320312 464.835938 312.789062 464.113281 314.234375 C 463.816406 314.832031 463.558594 315.515625 463.347656 316.253906 L 468.25 316.253906 C 468.042969 315.515625 467.785156 314.832031 467.484375 314.234375 Z M 467.484375 314.234375 " fill-opacity="1" fill-rule="nonzero"/><path fill="#ffffff" d="M 464.113281 328.339844 C 464.835938 329.785156 465.5625 330.253906 465.800781 330.253906 C 466.039062 330.253906 466.761719 329.785156 467.484375 328.339844 C 467.785156 327.742188 468.042969 327.058594 468.25 326.320312 L 463.347656 326.320312 C 463.558594 327.058594 463.816406 327.742188 464.113281 328.339844 Z M 464.113281 328.339844 " fill-opacity="1" fill-rule="nonzero"/><path fill="#ffffff" d="M 459.945312 321.289062 C 459.945312 320.503906 459.984375 319.738281 460.054688 319 L 457.125 319 C 456.933594 319.738281 456.832031 320.503906 456.832031 321.289062 C 456.832031 322.070312 456.933594 322.835938 457.125 323.574219 L 460.054688 323.574219 C 459.984375 322.835938 459.945312 322.070312 459.945312 321.289062 Z M 459.945312 321.289062 " fill-opacity="1" fill-rule="nonzero"/><path fill="#ffffff" d="M 471.65625 321.289062 C 471.65625 322.070312 471.617188 322.835938 471.542969 323.574219 L 474.472656 323.574219 C 474.667969 322.835938 474.765625 322.070312 474.765625 321.289062 C 474.765625 320.503906 474.667969 319.738281 474.472656 319 L 471.542969 319 C 471.617188 319.738281 471.65625 320.503906 471.65625 321.289062 Z M 471.65625 321.289062 " fill-opacity="1" fill-rule="nonzero"/><g clip-path="url(#f96c36a5cb)"><path fill="#ffffff" d="M 465.800781 302.070312 C 455.1875 302.070312 446.582031 310.671875 446.582031 321.289062 C 446.582031 331.902344 455.1875 340.507812 465.800781 340.507812 C 476.414062 340.507812 485.019531 331.902344 485.019531 321.289062 C 485.019531 310.671875 476.414062 302.070312 465.800781 302.070312 Z M 465.800781 333 C 459.332031 333 454.089844 327.753906 454.089844 321.289062 C 454.089844 314.820312 459.332031 309.574219 465.800781 309.574219 C 472.269531 309.574219 477.511719 314.820312 477.511719 321.289062 C 477.511719 327.753906 472.269531 333 465.800781 333 Z M 465.800781 333 " fill-opacity="1" fill-rule="nonzero"/></g><path fill="#ffffff" d="M 462.816406 319 C 462.734375 319.742188 462.6875 320.511719 462.6875 321.289062 C 462.6875 322.0625 462.734375 322.832031 462.816406 323.574219 L 468.78125 323.574219 C 468.867188 322.832031 468.910156 322.0625 468.910156 321.289062 C 468.910156 320.511719 468.867188 319.742188 468.78125 319 Z M 462.816406 319 " fill-opacity="1" fill-rule="nonzero"/><path fill="#ffffff" d="M 470.148438 329.132812 C 470.867188 328.730469 471.539062 328.226562 472.140625 327.628906 C 472.546875 327.222656 472.90625 326.785156 473.222656 326.320312 L 471.089844 326.320312 C 470.84375 327.347656 470.523438 328.296875 470.148438 329.132812 Z M 470.148438 329.132812 " fill-opacity="1" fill-rule="nonzero"/><g fill="#ffffff" fill-opacity="1"><g transform="translate(135.066271, 327.66343)"><g><path d="M 5.078125 -9.5 C 6.304688 -9.5 7.25 -9.191406 7.90625 -8.578125 C 8.5625 -7.960938 8.890625 -7.050781 8.890625 -5.84375 L 8.890625 0 L 7.671875 0 L 7.671875 -1.46875 C 7.378906 -0.976562 6.957031 -0.59375 6.40625 -0.3125 C 5.851562 -0.0390625 5.191406 0.09375 4.421875 0.09375 C 3.367188 0.09375 2.53125 -0.15625 1.90625 -0.65625 C 1.289062 -1.164062 0.984375 -1.832031 0.984375 -2.65625 C 0.984375 -3.457031 1.269531 -4.101562 1.84375 -4.59375 C 2.425781 -5.082031 3.351562 -5.328125 4.625 -5.328125 L 7.609375 -5.328125 L 7.609375 -5.890625 C 7.609375 -6.703125 7.378906 -7.320312 6.921875 -7.75 C 6.472656 -8.175781 5.816406 -8.390625 4.953125 -8.390625 C 4.347656 -8.390625 3.769531 -8.289062 3.21875 -8.09375 C 2.675781 -7.894531 2.207031 -7.625 1.8125 -7.28125 L 1.234375 -8.21875 C 1.710938 -8.625 2.285156 -8.9375 2.953125 -9.15625 C 3.617188 -9.382812 4.328125 -9.5 5.078125 -9.5 Z M 4.625 -0.90625 C 5.34375 -0.90625 5.957031 -1.070312 6.46875 -1.40625 C 6.976562 -1.738281 7.359375 -2.210938 7.609375 -2.828125 L 7.609375 -4.375 L 4.65625 -4.375 C 3.039062 -4.375 2.234375 -3.8125 2.234375 -2.6875 C 2.234375 -2.132812 2.441406 -1.695312 2.859375 -1.375 C 3.285156 -1.0625 3.875 -0.90625 4.625 -0.90625 Z M 4.625 -0.90625 "/></g></g></g><g fill="#ffffff" fill-opacity="1"><g transform="translate(145.637922, 327.66343)"><g><path d="M 6.578125 -9.5 C 7.765625 -9.5 8.707031 -9.15625 9.40625 -8.46875 C 10.101562 -7.78125 10.453125 -6.78125 10.453125 -5.46875 L 10.453125 0 L 9.171875 0 L 9.171875 -5.34375 C 9.171875 -6.320312 8.925781 -7.066406 8.4375 -7.578125 C 7.945312 -8.097656 7.25 -8.359375 6.34375 -8.359375 C 5.332031 -8.359375 4.53125 -8.054688 3.9375 -7.453125 C 3.34375 -6.847656 3.046875 -6.015625 3.046875 -4.953125 L 3.046875 0 L 1.78125 0 L 1.78125 -13.296875 L 3.046875 -13.296875 L 3.046875 -7.78125 C 3.390625 -8.332031 3.863281 -8.753906 4.46875 -9.046875 C 5.082031 -9.347656 5.785156 -9.5 6.578125 -9.5 Z M 6.578125 -9.5 "/></g></g></g><g fill="#ffffff" fill-opacity="1"><g transform="translate(157.768441, 327.66343)"><g><path d="M 3 -7.578125 C 3.289062 -8.210938 3.734375 -8.691406 4.328125 -9.015625 C 4.921875 -9.335938 5.65625 -9.5 6.53125 -9.5 L 6.53125 -8.265625 L 6.21875 -8.28125 C 5.226562 -8.28125 4.453125 -7.972656 3.890625 -7.359375 C 3.328125 -6.753906 3.046875 -5.898438 3.046875 -4.796875 L 3.046875 0 L 1.78125 0 L 1.78125 -9.421875 L 3 -9.421875 Z M 3 -7.578125 "/></g></g></g><g fill="#ffffff" fill-opacity="1"><g transform="translate(164.953579, 327.66343)"><g><path d="M 4.40625 -12.546875 L 4.40625 0 L 3.125 0 L 3.125 -11.390625 L 0.15625 -11.390625 L 0.15625 -12.546875 Z M 4.40625 -12.546875 "/></g></g></g><g fill="#ffffff" fill-opacity="1"><g transform="translate(171.421996, 327.66343)"><g><path d="M 6.125 -7.515625 C 6.945312 -7.515625 7.675781 -7.359375 8.3125 -7.046875 C 8.957031 -6.734375 9.457031 -6.289062 9.8125 -5.71875 C 10.175781 -5.15625 10.359375 -4.5 10.359375 -3.75 C 10.359375 -2.976562 10.171875 -2.300781 9.796875 -1.71875 C 9.429688 -1.132812 8.921875 -0.679688 8.265625 -0.359375 C 7.617188 -0.046875 6.890625 0.109375 6.078125 0.109375 C 4.410156 0.109375 3.132812 -0.4375 2.25 -1.53125 C 1.375 -2.625 0.9375 -4.171875 0.9375 -6.171875 C 0.9375 -7.566406 1.171875 -8.75 1.640625 -9.71875 C 2.117188 -10.6875 2.789062 -11.414062 3.65625 -11.90625 C 4.519531 -12.40625 5.523438 -12.65625 6.671875 -12.65625 C 7.910156 -12.65625 8.898438 -12.425781 9.640625 -11.96875 L 9.125 -10.9375 C 8.519531 -11.332031 7.707031 -11.53125 6.6875 -11.53125 C 5.300781 -11.53125 4.210938 -11.085938 3.421875 -10.203125 C 2.628906 -9.328125 2.234375 -8.050781 2.234375 -6.375 C 2.234375 -6.082031 2.253906 -5.742188 2.296875 -5.359375 C 2.609375 -6.035156 3.101562 -6.5625 3.78125 -6.9375 C 4.457031 -7.320312 5.238281 -7.515625 6.125 -7.515625 Z M 6.015625 -0.984375 C 6.929688 -0.984375 7.671875 -1.226562 8.234375 -1.71875 C 8.804688 -2.21875 9.09375 -2.878906 9.09375 -3.703125 C 9.09375 -4.535156 8.804688 -5.195312 8.234375 -5.6875 C 7.671875 -6.175781 6.90625 -6.421875 5.9375 -6.421875 C 5.300781 -6.421875 4.738281 -6.300781 4.25 -6.0625 C 3.769531 -5.820312 3.390625 -5.488281 3.109375 -5.0625 C 2.835938 -4.644531 2.703125 -4.179688 2.703125 -3.671875 C 2.703125 -3.191406 2.832031 -2.75 3.09375 -2.34375 C 3.351562 -1.9375 3.734375 -1.609375 4.234375 -1.359375 C 4.734375 -1.109375 5.328125 -0.984375 6.015625 -0.984375 Z M 6.015625 -0.984375 "/></g></g></g><g fill="#ffffff" fill-opacity="1"><g transform="translate(182.334086, 327.66343)"><g><path d="M 1.90625 0.09375 C 1.632812 0.09375 1.40625 0 1.21875 -0.1875 C 1.039062 -0.382812 0.953125 -0.617188 0.953125 -0.890625 C 0.953125 -1.171875 1.039062 -1.398438 1.21875 -1.578125 C 1.40625 -1.765625 1.632812 -1.859375 1.90625 -1.859375 C 2.164062 -1.859375 2.390625 -1.765625 2.578125 -1.578125 C 2.773438 -1.398438 2.875 -1.171875 2.875 -0.890625 C 2.875 -0.617188 2.773438 -0.382812 2.578125 -0.1875 C 2.390625 0 2.164062 0.09375 1.90625 0.09375 Z M 1.90625 0.09375 "/></g></g></g><g fill="#ffffff" fill-opacity="1"><g transform="translate(186.132711, 327.66343)"><g><path d="M 5.078125 -9.5 C 6.304688 -9.5 7.25 -9.191406 7.90625 -8.578125 C 8.5625 -7.960938 8.890625 -7.050781 8.890625 -5.84375 L 8.890625 0 L 7.671875 0 L 7.671875 -1.46875 C 7.378906 -0.976562 6.957031 -0.59375 6.40625 -0.3125 C 5.851562 -0.0390625 5.191406 0.09375 4.421875 0.09375 C 3.367188 0.09375 2.53125 -0.15625 1.90625 -0.65625 C 1.289062 -1.164062 0.984375 -1.832031 0.984375 -2.65625 C 0.984375 -3.457031 1.269531 -4.101562 1.84375 -4.59375 C 2.425781 -5.082031 3.351562 -5.328125 4.625 -5.328125 L 7.609375 -5.328125 L 7.609375 -5.890625 C 7.609375 -6.703125 7.378906 -7.320312 6.921875 -7.75 C 6.472656 -8.175781 5.816406 -8.390625 4.953125 -8.390625 C 4.347656 -8.390625 3.769531 -8.289062 3.21875 -8.09375 C 2.675781 -7.894531 2.207031 -7.625 1.8125 -7.28125 L 1.234375 -8.21875 C 1.710938 -8.625 2.285156 -8.9375 2.953125 -9.15625 C 3.617188 -9.382812 4.328125 -9.5 5.078125 -9.5 Z M 4.625 -0.90625 C 5.34375 -0.90625 5.957031 -1.070312 6.46875 -1.40625 C 6.976562 -1.738281 7.359375 -2.210938 7.609375 -2.828125 L 7.609375 -4.375 L 4.65625 -4.375 C 3.039062 -4.375 2.234375 -3.8125 2.234375 -2.6875 C 2.234375 -2.132812 2.441406 -1.695312 2.859375 -1.375 C 3.285156 -1.0625 3.875 -0.90625 4.625 -0.90625 Z M 4.625 -0.90625 "/></g></g></g><g fill="#ffffff" fill-opacity="1"><g transform="translate(196.704362, 327.66343)"><g><path d="M 6.625 -9.5 C 7.507812 -9.5 8.3125 -9.296875 9.03125 -8.890625 C 9.75 -8.492188 10.3125 -7.929688 10.71875 -7.203125 C 11.125 -6.472656 11.328125 -5.644531 11.328125 -4.71875 C 11.328125 -3.78125 11.125 -2.945312 10.71875 -2.21875 C 10.3125 -1.488281 9.75 -0.921875 9.03125 -0.515625 C 8.3125 -0.109375 7.507812 0.09375 6.625 0.09375 C 5.84375 0.09375 5.132812 -0.0703125 4.5 -0.40625 C 3.875 -0.738281 3.375 -1.222656 3 -1.859375 L 3 0 L 1.78125 0 L 1.78125 -13.296875 L 3.046875 -13.296875 L 3.046875 -7.640625 C 3.441406 -8.242188 3.945312 -8.703125 4.5625 -9.015625 C 5.175781 -9.335938 5.863281 -9.5 6.625 -9.5 Z M 6.546875 -1.046875 C 7.203125 -1.046875 7.796875 -1.195312 8.328125 -1.5 C 8.867188 -1.800781 9.289062 -2.234375 9.59375 -2.796875 C 9.894531 -3.359375 10.046875 -4 10.046875 -4.71875 C 10.046875 -5.425781 9.894531 -6.0625 9.59375 -6.625 C 9.289062 -7.1875 8.867188 -7.617188 8.328125 -7.921875 C 7.796875 -8.234375 7.203125 -8.390625 6.546875 -8.390625 C 5.867188 -8.390625 5.265625 -8.234375 4.734375 -7.921875 C 4.203125 -7.617188 3.785156 -7.1875 3.484375 -6.625 C 3.179688 -6.0625 3.03125 -5.425781 3.03125 -4.71875 C 3.03125 -4 3.179688 -3.359375 3.484375 -2.796875 C 3.785156 -2.234375 4.203125 -1.800781 4.734375 -1.5 C 5.265625 -1.195312 5.867188 -1.046875 6.546875 -1.046875 Z M 6.546875 -1.046875 "/></g></g></g><g fill="#ffffff" fill-opacity="1"><g transform="translate(208.852802, 327.66343)"><g><path d="M 1.78125 -9.421875 L 3.046875 -9.421875 L 3.046875 0 L 1.78125 0 Z M 2.421875 -11.484375 C 2.160156 -11.484375 1.9375 -11.570312 1.75 -11.75 C 1.570312 -11.9375 1.484375 -12.15625 1.484375 -12.40625 C 1.484375 -12.644531 1.570312 -12.851562 1.75 -13.03125 C 1.9375 -13.207031 2.160156 -13.296875 2.421875 -13.296875 C 2.679688 -13.296875 2.898438 -13.207031 3.078125 -13.03125 C 3.265625 -12.863281 3.359375 -12.660156 3.359375 -12.421875 C 3.359375 -12.160156 3.265625 -11.9375 3.078125 -11.75 C 2.898438 -11.570312 2.679688 -11.484375 2.421875 -11.484375 Z M 2.421875 -11.484375 "/></g></g></g><g fill="#ffffff" fill-opacity="1"><g transform="translate(213.672756, 327.66343)"><g><path d="M 10.375 -13.296875 L 10.375 0 L 9.15625 0 L 9.15625 -1.859375 C 8.769531 -1.222656 8.265625 -0.738281 7.640625 -0.40625 C 7.015625 -0.0703125 6.304688 0.09375 5.515625 0.09375 C 4.628906 0.09375 3.828125 -0.109375 3.109375 -0.515625 C 2.398438 -0.921875 1.84375 -1.488281 1.4375 -2.21875 C 1.03125 -2.945312 0.828125 -3.78125 0.828125 -4.71875 C 0.828125 -5.644531 1.03125 -6.472656 1.4375 -7.203125 C 1.84375 -7.929688 2.398438 -8.492188 3.109375 -8.890625 C 3.828125 -9.296875 4.628906 -9.5 5.515625 -9.5 C 6.285156 -9.5 6.976562 -9.335938 7.59375 -9.015625 C 8.207031 -8.703125 8.710938 -8.242188 9.109375 -7.640625 L 9.109375 -13.296875 Z M 5.625 -1.046875 C 6.28125 -1.046875 6.875 -1.195312 7.40625 -1.5 C 7.9375 -1.800781 8.351562 -2.234375 8.65625 -2.796875 C 8.96875 -3.359375 9.125 -4 9.125 -4.71875 C 9.125 -5.425781 8.96875 -6.0625 8.65625 -6.625 C 8.351562 -7.1875 7.9375 -7.617188 7.40625 -7.921875 C 6.875 -8.234375 6.28125 -8.390625 5.625 -8.390625 C 4.957031 -8.390625 4.359375 -8.234375 3.828125 -7.921875 C 3.296875 -7.617188 2.875 -7.1875 2.5625 -6.625 C 2.257812 -6.0625 2.109375 -5.425781 2.109375 -4.71875 C 2.109375 -4 2.257812 -3.359375 2.5625 -2.796875 C 2.875 -2.234375 3.296875 -1.800781 3.828125 -1.5 C 4.359375 -1.195312 4.957031 -1.046875 5.625 -1.046875 Z M 5.625 -1.046875 "/></g></g></g><g fill="#ffffff" fill-opacity="1"><g transform="translate(225.821196, 327.66343)"><g><path d="M 6.578125 -9.5 C 7.765625 -9.5 8.707031 -9.15625 9.40625 -8.46875 C 10.101562 -7.78125 10.453125 -6.78125 10.453125 -5.46875 L 10.453125 0 L 9.171875 0 L 9.171875 -5.34375 C 9.171875 -6.320312 8.925781 -7.066406 8.4375 -7.578125 C 7.945312 -8.097656 7.25 -8.359375 6.34375 -8.359375 C 5.332031 -8.359375 4.53125 -8.054688 3.9375 -7.453125 C 3.34375 -6.847656 3.046875 -6.015625 3.046875 -4.953125 L 3.046875 0 L 1.78125 0 L 1.78125 -13.296875 L 3.046875 -13.296875 L 3.046875 -7.78125 C 3.390625 -8.332031 3.863281 -8.753906 4.46875 -9.046875 C 5.082031 -9.347656 5.785156 -9.5 6.578125 -9.5 Z M 6.578125 -9.5 "/></g></g></g><g fill="#ffffff" fill-opacity="1"><g transform="translate(237.951715, 327.66343)"><g><path d="M 5.078125 -9.5 C 6.304688 -9.5 7.25 -9.191406 7.90625 -8.578125 C 8.5625 -7.960938 8.890625 -7.050781 8.890625 -5.84375 L 8.890625 0 L 7.671875 0 L 7.671875 -1.46875 C 7.378906 -0.976562 6.957031 -0.59375 6.40625 -0.3125 C 5.851562 -0.0390625 5.191406 0.09375 4.421875 0.09375 C 3.367188 0.09375 2.53125 -0.15625 1.90625 -0.65625 C 1.289062 -1.164062 0.984375 -1.832031 0.984375 -2.65625 C 0.984375 -3.457031 1.269531 -4.101562 1.84375 -4.59375 C 2.425781 -5.082031 3.351562 -5.328125 4.625 -5.328125 L 7.609375 -5.328125 L 7.609375 -5.890625 C 7.609375 -6.703125 7.378906 -7.320312 6.921875 -7.75 C 6.472656 -8.175781 5.816406 -8.390625 4.953125 -8.390625 C 4.347656 -8.390625 3.769531 -8.289062 3.21875 -8.09375 C 2.675781 -7.894531 2.207031 -7.625 1.8125 -7.28125 L 1.234375 -8.21875 C 1.710938 -8.625 2.285156 -8.9375 2.953125 -9.15625 C 3.617188 -9.382812 4.328125 -9.5 5.078125 -9.5 Z M 4.625 -0.90625 C 5.34375 -0.90625 5.957031 -1.070312 6.46875 -1.40625 C 6.976562 -1.738281 7.359375 -2.210938 7.609375 -2.828125 L 7.609375 -4.375 L 4.65625 -4.375 C 3.039062 -4.375 2.234375 -3.8125 2.234375 -2.6875 C 2.234375 -2.132812 2.441406 -1.695312 2.859375 -1.375 C 3.285156 -1.0625 3.875 -0.90625 4.625 -0.90625 Z M 4.625 -0.90625 "/></g></g></g><g fill="#ffffff" fill-opacity="1"><g transform="translate(248.523366, 327.66343)"><g><path d="M 4.296875 0.09375 C 3.535156 0.09375 2.804688 -0.015625 2.109375 -0.234375 C 1.410156 -0.460938 0.863281 -0.742188 0.46875 -1.078125 L 1.046875 -2.078125 C 1.429688 -1.765625 1.921875 -1.507812 2.515625 -1.3125 C 3.117188 -1.113281 3.742188 -1.015625 4.390625 -1.015625 C 5.253906 -1.015625 5.890625 -1.148438 6.296875 -1.421875 C 6.710938 -1.691406 6.921875 -2.070312 6.921875 -2.5625 C 6.921875 -2.90625 6.804688 -3.175781 6.578125 -3.375 C 6.347656 -3.570312 6.0625 -3.722656 5.71875 -3.828125 C 5.375 -3.929688 4.914062 -4.03125 4.34375 -4.125 C 3.570312 -4.269531 2.953125 -4.414062 2.484375 -4.5625 C 2.023438 -4.707031 1.628906 -4.957031 1.296875 -5.3125 C 0.972656 -5.675781 0.8125 -6.175781 0.8125 -6.8125 C 0.8125 -7.601562 1.140625 -8.25 1.796875 -8.75 C 2.453125 -9.25 3.363281 -9.5 4.53125 -9.5 C 5.144531 -9.5 5.753906 -9.414062 6.359375 -9.25 C 6.972656 -9.09375 7.476562 -8.882812 7.875 -8.625 L 7.3125 -7.59375 C 6.53125 -8.132812 5.601562 -8.40625 4.53125 -8.40625 C 3.71875 -8.40625 3.101562 -8.257812 2.6875 -7.96875 C 2.28125 -7.6875 2.078125 -7.3125 2.078125 -6.84375 C 2.078125 -6.488281 2.191406 -6.203125 2.421875 -5.984375 C 2.660156 -5.765625 2.953125 -5.601562 3.296875 -5.5 C 3.640625 -5.40625 4.117188 -5.304688 4.734375 -5.203125 C 5.484375 -5.054688 6.082031 -4.910156 6.53125 -4.765625 C 6.988281 -4.617188 7.378906 -4.375 7.703125 -4.03125 C 8.023438 -3.6875 8.1875 -3.207031 8.1875 -2.59375 C 8.1875 -1.769531 7.84375 -1.113281 7.15625 -0.625 C 6.46875 -0.144531 5.515625 0.09375 4.296875 0.09375 Z M 4.296875 0.09375 "/></g></g></g><g fill="#ffffff" fill-opacity="1"><g transform="translate(257.285294, 327.66343)"><g><path d="M 5.078125 -9.5 C 6.304688 -9.5 7.25 -9.191406 7.90625 -8.578125 C 8.5625 -7.960938 8.890625 -7.050781 8.890625 -5.84375 L 8.890625 0 L 7.671875 0 L 7.671875 -1.46875 C 7.378906 -0.976562 6.957031 -0.59375 6.40625 -0.3125 C 5.851562 -0.0390625 5.191406 0.09375 4.421875 0.09375 C 3.367188 0.09375 2.53125 -0.15625 1.90625 -0.65625 C 1.289062 -1.164062 0.984375 -1.832031 0.984375 -2.65625 C 0.984375 -3.457031 1.269531 -4.101562 1.84375 -4.59375 C 2.425781 -5.082031 3.351562 -5.328125 4.625 -5.328125 L 7.609375 -5.328125 L 7.609375 -5.890625 C 7.609375 -6.703125 7.378906 -7.320312 6.921875 -7.75 C 6.472656 -8.175781 5.816406 -8.390625 4.953125 -8.390625 C 4.347656 -8.390625 3.769531 -8.289062 3.21875 -8.09375 C 2.675781 -7.894531 2.207031 -7.625 1.8125 -7.28125 L 1.234375 -8.21875 C 1.710938 -8.625 2.285156 -8.9375 2.953125 -9.15625 C 3.617188 -9.382812 4.328125 -9.5 5.078125 -9.5 Z M 4.625 -0.90625 C 5.34375 -0.90625 5.957031 -1.070312 6.46875 -1.40625 C 6.976562 -1.738281 7.359375 -2.210938 7.609375 -2.828125 L 7.609375 -4.375 L 4.65625 -4.375 C 3.039062 -4.375 2.234375 -3.8125 2.234375 -2.6875 C 2.234375 -2.132812 2.441406 -1.695312 2.859375 -1.375 C 3.285156 -1.0625 3.875 -0.90625 4.625 -0.90625 Z M 4.625 -0.90625 "/></g></g></g><g fill="#ffffff" fill-opacity="1"><g transform="translate(267.856945, 327.66343)"><g><path d="M 6.578125 -9.5 C 7.765625 -9.5 8.707031 -9.15625 9.40625 -8.46875 C 10.101562 -7.78125 10.453125 -6.78125 10.453125 -5.46875 L 10.453125 0 L 9.171875 0 L 9.171875 -5.34375 C 9.171875 -6.320312 8.925781 -7.066406 8.4375 -7.578125 C 7.945312 -8.097656 7.25 -8.359375 6.34375 -8.359375 C 5.332031 -8.359375 4.53125 -8.054688 3.9375 -7.453125 C 3.34375 -6.847656 3.046875 -6.015625 3.046875 -4.953125 L 3.046875 0 L 1.78125 0 L 1.78125 -9.421875 L 3 -9.421875 L 3 -7.6875 C 3.34375 -8.257812 3.820312 -8.703125 4.4375 -9.015625 C 5.050781 -9.335938 5.765625 -9.5 6.578125 -9.5 Z M 6.578125 -9.5 "/></g></g></g><g fill="#ffffff" fill-opacity="1"><g transform="translate(279.987463, 327.66343)"><g><path d="M 3 -7.578125 C 3.289062 -8.210938 3.734375 -8.691406 4.328125 -9.015625 C 4.921875 -9.335938 5.65625 -9.5 6.53125 -9.5 L 6.53125 -8.265625 L 6.21875 -8.28125 C 5.226562 -8.28125 4.453125 -7.972656 3.890625 -7.359375 C 3.328125 -6.753906 3.046875 -5.898438 3.046875 -4.796875 L 3.046875 0 L 1.78125 0 L 1.78125 -9.421875 L 3 -9.421875 Z M 3 -7.578125 "/></g></g></g><g fill="#ffffff" fill-opacity="1"><g transform="translate(287.172602, 327.66343)"><g><path d="M 5.078125 -9.5 C 6.304688 -9.5 7.25 -9.191406 7.90625 -8.578125 C 8.5625 -7.960938 8.890625 -7.050781 8.890625 -5.84375 L 8.890625 0 L 7.671875 0 L 7.671875 -1.46875 C 7.378906 -0.976562 6.957031 -0.59375 6.40625 -0.3125 C 5.851562 -0.0390625 5.191406 0.09375 4.421875 0.09375 C 3.367188 0.09375 2.53125 -0.15625 1.90625 -0.65625 C 1.289062 -1.164062 0.984375 -1.832031 0.984375 -2.65625 C 0.984375 -3.457031 1.269531 -4.101562 1.84375 -4.59375 C 2.425781 -5.082031 3.351562 -5.328125 4.625 -5.328125 L 7.609375 -5.328125 L 7.609375 -5.890625 C 7.609375 -6.703125 7.378906 -7.320312 6.921875 -7.75 C 6.472656 -8.175781 5.816406 -8.390625 4.953125 -8.390625 C 4.347656 -8.390625 3.769531 -8.289062 3.21875 -8.09375 C 2.675781 -7.894531 2.207031 -7.625 1.8125 -7.28125 L 1.234375 -8.21875 C 1.710938 -8.625 2.285156 -8.9375 2.953125 -9.15625 C 3.617188 -9.382812 4.328125 -9.5 5.078125 -9.5 Z M 4.625 -0.90625 C 5.34375 -0.90625 5.957031 -1.070312 6.46875 -1.40625 C 6.976562 -1.738281 7.359375 -2.210938 7.609375 -2.828125 L 7.609375 -4.375 L 4.65625 -4.375 C 3.039062 -4.375 2.234375 -3.8125 2.234375 -2.6875 C 2.234375 -2.132812 2.441406 -1.695312 2.859375 -1.375 C 3.285156 -1.0625 3.875 -0.90625 4.625 -0.90625 Z M 4.625 -0.90625 "/></g></g></g><g fill="#ffffff" fill-opacity="1"><g transform="translate(297.744252, 327.66343)"><g><path d="M 4.890625 -12.3125 C 4.335938 -12.3125 3.921875 -12.160156 3.640625 -11.859375 C 3.359375 -11.566406 3.21875 -11.125 3.21875 -10.53125 L 3.21875 -9.421875 L 6.125 -9.421875 L 6.125 -8.359375 L 3.265625 -8.359375 L 3.265625 0 L 1.984375 0 L 1.984375 -8.359375 L 0.296875 -8.359375 L 0.296875 -9.421875 L 1.984375 -9.421875 L 1.984375 -10.59375 C 1.984375 -11.445312 2.234375 -12.125 2.734375 -12.625 C 3.234375 -13.132812 3.9375 -13.390625 4.84375 -13.390625 C 5.195312 -13.390625 5.539062 -13.335938 5.875 -13.234375 C 6.207031 -13.128906 6.488281 -12.984375 6.71875 -12.796875 L 6.296875 -11.84375 C 5.921875 -12.15625 5.453125 -12.3125 4.890625 -12.3125 Z M 4.890625 -12.3125 "/></g></g></g><g fill="#ffffff" fill-opacity="1"><g transform="translate(303.818467, 327.66343)"><g><path d="M 1.78125 -9.421875 L 3.046875 -9.421875 L 3.046875 0 L 1.78125 0 Z M 2.421875 -11.484375 C 2.160156 -11.484375 1.9375 -11.570312 1.75 -11.75 C 1.570312 -11.9375 1.484375 -12.15625 1.484375 -12.40625 C 1.484375 -12.644531 1.570312 -12.851562 1.75 -13.03125 C 1.9375 -13.207031 2.160156 -13.296875 2.421875 -13.296875 C 2.679688 -13.296875 2.898438 -13.207031 3.078125 -13.03125 C 3.265625 -12.863281 3.359375 -12.660156 3.359375 -12.421875 C 3.359375 -12.160156 3.265625 -11.9375 3.078125 -11.75 C 2.898438 -11.570312 2.679688 -11.484375 2.421875 -11.484375 Z M 2.421875 -11.484375 "/></g></g></g><g fill="#ffffff" fill-opacity="1"><g transform="translate(308.63842, 327.66343)"><g><path d="M 9.296875 -12.65625 C 10.898438 -12.65625 12.332031 -12.320312 13.59375 -11.65625 C 14.851562 -10.988281 15.832031 -10.054688 16.53125 -8.859375 C 17.238281 -7.660156 17.59375 -6.289062 17.59375 -4.75 C 17.59375 -3.226562 17.328125 -2.039062 16.796875 -1.1875 C 16.273438 -0.332031 15.550781 0.09375 14.625 0.09375 C 14.039062 0.09375 13.566406 -0.078125 13.203125 -0.421875 C 12.835938 -0.773438 12.632812 -1.253906 12.59375 -1.859375 C 12.238281 -1.242188 11.75 -0.765625 11.125 -0.421875 C 10.507812 -0.078125 9.804688 0.09375 9.015625 0.09375 C 8.179688 0.09375 7.425781 -0.101562 6.75 -0.5 C 6.070312 -0.90625 5.535156 -1.457031 5.140625 -2.15625 C 4.753906 -2.863281 4.5625 -3.660156 4.5625 -4.546875 C 4.5625 -5.429688 4.753906 -6.222656 5.140625 -6.921875 C 5.535156 -7.617188 6.070312 -8.164062 6.75 -8.5625 C 7.425781 -8.957031 8.179688 -9.15625 9.015625 -9.15625 C 9.773438 -9.15625 10.460938 -8.988281 11.078125 -8.65625 C 11.691406 -8.332031 12.1875 -7.875 12.5625 -7.28125 L 12.5625 -9.09375 L 13.734375 -9.09375 L 13.734375 -2.296875 C 13.734375 -1.816406 13.832031 -1.46875 14.03125 -1.25 C 14.238281 -1.039062 14.507812 -0.9375 14.84375 -0.9375 C 15.40625 -0.9375 15.847656 -1.269531 16.171875 -1.9375 C 16.503906 -2.601562 16.671875 -3.535156 16.671875 -4.734375 C 16.671875 -6.117188 16.359375 -7.335938 15.734375 -8.390625 C 15.109375 -9.453125 14.238281 -10.273438 13.125 -10.859375 C 12.007812 -11.441406 10.734375 -11.734375 9.296875 -11.734375 C 7.859375 -11.734375 6.578125 -11.429688 5.453125 -10.828125 C 4.335938 -10.222656 3.46875 -9.375 2.84375 -8.28125 C 2.226562 -7.195312 1.921875 -5.953125 1.921875 -4.546875 C 1.921875 -3.148438 2.226562 -1.898438 2.84375 -0.796875 C 3.457031 0.296875 4.316406 1.144531 5.421875 1.75 C 6.523438 2.363281 7.796875 2.671875 9.234375 2.671875 C 9.796875 2.671875 10.382812 2.601562 11 2.46875 C 11.613281 2.34375 12.171875 2.144531 12.671875 1.875 L 12.96875 2.765625 C 12.457031 3.023438 11.863281 3.222656 11.1875 3.359375 C 10.507812 3.503906 9.859375 3.578125 9.234375 3.578125 C 7.609375 3.578125 6.164062 3.226562 4.90625 2.53125 C 3.65625 1.84375 2.679688 0.882812 1.984375 -0.34375 C 1.285156 -1.582031 0.9375 -2.984375 0.9375 -4.546875 C 0.9375 -6.128906 1.285156 -7.53125 1.984375 -8.75 C 2.691406 -9.976562 3.679688 -10.9375 4.953125 -11.625 C 6.222656 -12.3125 7.671875 -12.65625 9.296875 -12.65625 Z M 9.171875 -0.953125 C 9.816406 -0.953125 10.394531 -1.097656 10.90625 -1.390625 C 11.425781 -1.691406 11.832031 -2.113281 12.125 -2.65625 C 12.425781 -3.207031 12.578125 -3.835938 12.578125 -4.546875 C 12.578125 -5.253906 12.425781 -5.878906 12.125 -6.421875 C 11.832031 -6.960938 11.425781 -7.378906 10.90625 -7.671875 C 10.394531 -7.972656 9.816406 -8.125 9.171875 -8.125 C 8.515625 -8.125 7.925781 -7.972656 7.40625 -7.671875 C 6.882812 -7.367188 6.476562 -6.945312 6.1875 -6.40625 C 5.894531 -5.875 5.75 -5.253906 5.75 -4.546875 C 5.75 -3.847656 5.894531 -3.222656 6.1875 -2.671875 C 6.476562 -2.128906 6.882812 -1.707031 7.40625 -1.40625 C 7.925781 -1.101562 8.515625 -0.953125 9.171875 -0.953125 Z M 9.171875 -0.953125 "/></g></g></g><g fill="#ffffff" fill-opacity="1"><g transform="translate(327.147761, 327.66343)"><g><path d="M 10.5 -9.421875 L 10.5 -1.140625 C 10.5 0.453125 10.109375 1.632812 9.328125 2.40625 C 8.546875 3.175781 7.363281 3.5625 5.78125 3.5625 C 4.914062 3.5625 4.085938 3.429688 3.296875 3.171875 C 2.515625 2.921875 1.878906 2.566406 1.390625 2.109375 L 2.046875 1.140625 C 2.492188 1.546875 3.039062 1.863281 3.6875 2.09375 C 4.34375 2.320312 5.03125 2.4375 5.75 2.4375 C 6.945312 2.4375 7.828125 2.15625 8.390625 1.59375 C 8.953125 1.039062 9.234375 0.179688 9.234375 -0.984375 L 9.234375 -2.1875 C 8.835938 -1.59375 8.316406 -1.140625 7.671875 -0.828125 C 7.035156 -0.515625 6.332031 -0.359375 5.5625 -0.359375 C 4.675781 -0.359375 3.867188 -0.550781 3.140625 -0.9375 C 2.421875 -1.320312 1.851562 -1.863281 1.4375 -2.5625 C 1.03125 -3.269531 0.828125 -4.066406 0.828125 -4.953125 C 0.828125 -5.828125 1.03125 -6.613281 1.4375 -7.3125 C 1.851562 -8.007812 2.421875 -8.546875 3.140625 -8.921875 C 3.859375 -9.304688 4.664062 -9.5 5.5625 -9.5 C 6.351562 -9.5 7.070312 -9.335938 7.71875 -9.015625 C 8.363281 -8.691406 8.882812 -8.222656 9.28125 -7.609375 L 9.28125 -9.421875 Z M 5.6875 -1.484375 C 6.363281 -1.484375 6.976562 -1.628906 7.53125 -1.921875 C 8.082031 -2.210938 8.507812 -2.617188 8.8125 -3.140625 C 9.113281 -3.671875 9.265625 -4.273438 9.265625 -4.953125 C 9.265625 -5.617188 9.113281 -6.210938 8.8125 -6.734375 C 8.507812 -7.253906 8.082031 -7.660156 7.53125 -7.953125 C 6.988281 -8.242188 6.375 -8.390625 5.6875 -8.390625 C 5 -8.390625 4.382812 -8.242188 3.84375 -7.953125 C 3.300781 -7.671875 2.875 -7.265625 2.5625 -6.734375 C 2.257812 -6.210938 2.109375 -5.617188 2.109375 -4.953125 C 2.109375 -4.273438 2.257812 -3.671875 2.5625 -3.140625 C 2.875 -2.617188 3.300781 -2.210938 3.84375 -1.921875 C 4.382812 -1.628906 5 -1.484375 5.6875 -1.484375 Z M 5.6875 -1.484375 "/></g></g></g><g fill="#ffffff" fill-opacity="1"><g transform="translate(339.439539, 327.66343)"><g><path d="M 13.53125 -9.5 C 14.71875 -9.5 15.644531 -9.15625 16.3125 -8.46875 C 16.988281 -7.789062 17.328125 -6.789062 17.328125 -5.46875 L 17.328125 0 L 16.0625 0 L 16.0625 -5.34375 C 16.0625 -6.320312 15.820312 -7.066406 15.34375 -7.578125 C 14.875 -8.097656 14.210938 -8.359375 13.359375 -8.359375 C 12.367188 -8.359375 11.59375 -8.054688 11.03125 -7.453125 C 10.476562 -6.847656 10.203125 -6.015625 10.203125 -4.953125 L 10.203125 0 L 8.921875 0 L 8.921875 -5.34375 C 8.921875 -6.320312 8.6875 -7.066406 8.21875 -7.578125 C 7.75 -8.097656 7.078125 -8.359375 6.203125 -8.359375 C 5.234375 -8.359375 4.460938 -8.054688 3.890625 -7.453125 C 3.328125 -6.847656 3.046875 -6.015625 3.046875 -4.953125 L 3.046875 0 L 1.78125 0 L 1.78125 -9.421875 L 3 -9.421875 L 3 -7.703125 C 3.332031 -8.273438 3.796875 -8.71875 4.390625 -9.03125 C 4.984375 -9.34375 5.671875 -9.5 6.453125 -9.5 C 7.242188 -9.5 7.925781 -9.332031 8.5 -9 C 9.082031 -8.664062 9.515625 -8.171875 9.796875 -7.515625 C 10.148438 -8.128906 10.648438 -8.613281 11.296875 -8.96875 C 11.953125 -9.320312 12.695312 -9.5 13.53125 -9.5 Z M 13.53125 -9.5 "/></g></g></g><g fill="#ffffff" fill-opacity="1"><g transform="translate(358.450577, 327.66343)"><g><path d="M 5.078125 -9.5 C 6.304688 -9.5 7.25 -9.191406 7.90625 -8.578125 C 8.5625 -7.960938 8.890625 -7.050781 8.890625 -5.84375 L 8.890625 0 L 7.671875 0 L 7.671875 -1.46875 C 7.378906 -0.976562 6.957031 -0.59375 6.40625 -0.3125 C 5.851562 -0.0390625 5.191406 0.09375 4.421875 0.09375 C 3.367188 0.09375 2.53125 -0.15625 1.90625 -0.65625 C 1.289062 -1.164062 0.984375 -1.832031 0.984375 -2.65625 C 0.984375 -3.457031 1.269531 -4.101562 1.84375 -4.59375 C 2.425781 -5.082031 3.351562 -5.328125 4.625 -5.328125 L 7.609375 -5.328125 L 7.609375 -5.890625 C 7.609375 -6.703125 7.378906 -7.320312 6.921875 -7.75 C 6.472656 -8.175781 5.816406 -8.390625 4.953125 -8.390625 C 4.347656 -8.390625 3.769531 -8.289062 3.21875 -8.09375 C 2.675781 -7.894531 2.207031 -7.625 1.8125 -7.28125 L 1.234375 -8.21875 C 1.710938 -8.625 2.285156 -8.9375 2.953125 -9.15625 C 3.617188 -9.382812 4.328125 -9.5 5.078125 -9.5 Z M 4.625 -0.90625 C 5.34375 -0.90625 5.957031 -1.070312 6.46875 -1.40625 C 6.976562 -1.738281 7.359375 -2.210938 7.609375 -2.828125 L 7.609375 -4.375 L 4.65625 -4.375 C 3.039062 -4.375 2.234375 -3.8125 2.234375 -2.6875 C 2.234375 -2.132812 2.441406 -1.695312 2.859375 -1.375 C 3.285156 -1.0625 3.875 -0.90625 4.625 -0.90625 Z M 4.625 -0.90625 "/></g></g></g><g fill="#ffffff" fill-opacity="1"><g transform="translate(369.022216, 327.66343)"><g><path d="M 1.78125 -9.421875 L 3.046875 -9.421875 L 3.046875 0 L 1.78125 0 Z M 2.421875 -11.484375 C 2.160156 -11.484375 1.9375 -11.570312 1.75 -11.75 C 1.570312 -11.9375 1.484375 -12.15625 1.484375 -12.40625 C 1.484375 -12.644531 1.570312 -12.851562 1.75 -13.03125 C 1.9375 -13.207031 2.160156 -13.296875 2.421875 -13.296875 C 2.679688 -13.296875 2.898438 -13.207031 3.078125 -13.03125 C 3.265625 -12.863281 3.359375 -12.660156 3.359375 -12.421875 C 3.359375 -12.160156 3.265625 -11.9375 3.078125 -11.75 C 2.898438 -11.570312 2.679688 -11.484375 2.421875 -11.484375 Z M 2.421875 -11.484375 "/></g></g></g><g fill="#ffffff" fill-opacity="1"><g transform="translate(373.84217, 327.66343)"><g><path d="M 1.78125 -13.296875 L 3.046875 -13.296875 L 3.046875 0 L 1.78125 0 Z M 1.78125 -13.296875 "/></g></g></g><g fill="#ffffff" fill-opacity="1"><g transform="translate(378.662123, 327.66343)"><g><path d="M 1.90625 0.09375 C 1.632812 0.09375 1.40625 0 1.21875 -0.1875 C 1.039062 -0.382812 0.953125 -0.617188 0.953125 -0.890625 C 0.953125 -1.171875 1.039062 -1.398438 1.21875 -1.578125 C 1.40625 -1.765625 1.632812 -1.859375 1.90625 -1.859375 C 2.164062 -1.859375 2.390625 -1.765625 2.578125 -1.578125 C 2.773438 -1.398438 2.875 -1.171875 2.875 -0.890625 C 2.875 -0.617188 2.773438 -0.382812 2.578125 -0.1875 C 2.390625 0 2.164062 0.09375 1.90625 0.09375 Z M 1.90625 0.09375 "/></g></g></g><g fill="#ffffff" fill-opacity="1"><g transform="translate(382.460737, 327.66343)"><g><path d="M 5.6875 0.09375 C 4.75 0.09375 3.910156 -0.109375 3.171875 -0.515625 C 2.441406 -0.921875 1.867188 -1.488281 1.453125 -2.21875 C 1.035156 -2.957031 0.828125 -3.789062 0.828125 -4.71875 C 0.828125 -5.632812 1.035156 -6.457031 1.453125 -7.1875 C 1.867188 -7.914062 2.441406 -8.484375 3.171875 -8.890625 C 3.910156 -9.296875 4.75 -9.5 5.6875 -9.5 C 6.5 -9.5 7.222656 -9.335938 7.859375 -9.015625 C 8.492188 -8.703125 9 -8.242188 9.375 -7.640625 L 8.421875 -6.984375 C 8.109375 -7.453125 7.710938 -7.800781 7.234375 -8.03125 C 6.765625 -8.269531 6.25 -8.390625 5.6875 -8.390625 C 5 -8.390625 4.382812 -8.234375 3.84375 -7.921875 C 3.300781 -7.617188 2.875 -7.1875 2.5625 -6.625 C 2.257812 -6.0625 2.109375 -5.425781 2.109375 -4.71875 C 2.109375 -3.988281 2.257812 -3.34375 2.5625 -2.78125 C 2.875 -2.226562 3.300781 -1.800781 3.84375 -1.5 C 4.382812 -1.195312 5 -1.046875 5.6875 -1.046875 C 6.25 -1.046875 6.765625 -1.15625 7.234375 -1.375 C 7.710938 -1.601562 8.109375 -1.953125 8.421875 -2.421875 L 9.375 -1.78125 C 9 -1.164062 8.488281 -0.695312 7.84375 -0.375 C 7.195312 -0.0625 6.476562 0.09375 5.6875 0.09375 Z M 5.6875 0.09375 "/></g></g></g><g fill="#ffffff" fill-opacity="1"><g transform="translate(392.548612, 327.66343)"><g><path d="M 5.625 0.09375 C 4.71875 0.09375 3.898438 -0.109375 3.171875 -0.515625 C 2.441406 -0.929688 1.867188 -1.503906 1.453125 -2.234375 C 1.035156 -2.960938 0.828125 -3.789062 0.828125 -4.71875 C 0.828125 -5.632812 1.035156 -6.457031 1.453125 -7.1875 C 1.867188 -7.914062 2.441406 -8.484375 3.171875 -8.890625 C 3.898438 -9.296875 4.71875 -9.5 5.625 -9.5 C 6.53125 -9.5 7.347656 -9.296875 8.078125 -8.890625 C 8.804688 -8.484375 9.375 -7.914062 9.78125 -7.1875 C 10.195312 -6.457031 10.40625 -5.632812 10.40625 -4.71875 C 10.40625 -3.789062 10.195312 -2.960938 9.78125 -2.234375 C 9.375 -1.503906 8.804688 -0.929688 8.078125 -0.515625 C 7.347656 -0.109375 6.53125 0.09375 5.625 0.09375 Z M 5.625 -1.046875 C 6.289062 -1.046875 6.890625 -1.195312 7.421875 -1.5 C 7.953125 -1.800781 8.367188 -2.234375 8.671875 -2.796875 C 8.972656 -3.359375 9.125 -4 9.125 -4.71875 C 9.125 -5.425781 8.972656 -6.0625 8.671875 -6.625 C 8.367188 -7.1875 7.953125 -7.617188 7.421875 -7.921875 C 6.890625 -8.234375 6.289062 -8.390625 5.625 -8.390625 C 4.957031 -8.390625 4.359375 -8.234375 3.828125 -7.921875 C 3.296875 -7.617188 2.875 -7.1875 2.5625 -6.625 C 2.257812 -6.0625 2.109375 -5.425781 2.109375 -4.71875 C 2.109375 -4 2.257812 -3.359375 2.5625 -2.796875 C 2.875 -2.234375 3.296875 -1.800781 3.828125 -1.5 C 4.359375 -1.195312 4.957031 -1.046875 5.625 -1.046875 Z M 5.625 -1.046875 "/></g></g></g><g fill="#ffffff" fill-opacity="1"><g transform="translate(403.78323, 327.66343)"><g><path d="M 13.53125 -9.5 C 14.71875 -9.5 15.644531 -9.15625 16.3125 -8.46875 C 16.988281 -7.789062 17.328125 -6.789062 17.328125 -5.46875 L 17.328125 0 L 16.0625 0 L 16.0625 -5.34375 C 16.0625 -6.320312 15.820312 -7.066406 15.34375 -7.578125 C 14.875 -8.097656 14.210938 -8.359375 13.359375 -8.359375 C 12.367188 -8.359375 11.59375 -8.054688 11.03125 -7.453125 C 10.476562 -6.847656 10.203125 -6.015625 10.203125 -4.953125 L 10.203125 0 L 8.921875 0 L 8.921875 -5.34375 C 8.921875 -6.320312 8.6875 -7.066406 8.21875 -7.578125 C 7.75 -8.097656 7.078125 -8.359375 6.203125 -8.359375 C 5.234375 -8.359375 4.460938 -8.054688 3.890625 -7.453125 C 3.328125 -6.847656 3.046875 -6.015625 3.046875 -4.953125 L 3.046875 0 L 1.78125 0 L 1.78125 -9.421875 L 3 -9.421875 L 3 -7.703125 C 3.332031 -8.273438 3.796875 -8.71875 4.390625 -9.03125 C 4.984375 -9.34375 5.671875 -9.5 6.453125 -9.5 C 7.242188 -9.5 7.925781 -9.332031 8.5 -9 C 9.082031 -8.664062 9.515625 -8.171875 9.796875 -7.515625 C 10.148438 -8.128906 10.648438 -8.613281 11.296875 -8.96875 C 11.953125 -9.320312 12.695312 -9.5 13.53125 -9.5 Z M 13.53125 -9.5 "/></g></g></g><g fill="#ffffff" fill-opacity="1"><g transform="translate(501.521244, 327.66343)"><g><path d="M 5.078125 -9.5 C 6.304688 -9.5 7.25 -9.191406 7.90625 -8.578125 C 8.5625 -7.960938 8.890625 -7.050781 8.890625 -5.84375 L 8.890625 0 L 7.671875 0 L 7.671875 -1.46875 C 7.378906 -0.976562 6.957031 -0.59375 6.40625 -0.3125 C 5.851562 -0.0390625 5.191406 0.09375 4.421875 0.09375 C 3.367188 0.09375 2.53125 -0.15625 1.90625 -0.65625 C 1.289062 -1.164062 0.984375 -1.832031 0.984375 -2.65625 C 0.984375 -3.457031 1.269531 -4.101562 1.84375 -4.59375 C 2.425781 -5.082031 3.351562 -5.328125 4.625 -5.328125 L 7.609375 -5.328125 L 7.609375 -5.890625 C 7.609375 -6.703125 7.378906 -7.320312 6.921875 -7.75 C 6.472656 -8.175781 5.816406 -8.390625 4.953125 -8.390625 C 4.347656 -8.390625 3.769531 -8.289062 3.21875 -8.09375 C 2.675781 -7.894531 2.207031 -7.625 1.8125 -7.28125 L 1.234375 -8.21875 C 1.710938 -8.625 2.285156 -8.9375 2.953125 -9.15625 C 3.617188 -9.382812 4.328125 -9.5 5.078125 -9.5 Z M 4.625 -0.90625 C 5.34375 -0.90625 5.957031 -1.070312 6.46875 -1.40625 C 6.976562 -1.738281 7.359375 -2.210938 7.609375 -2.828125 L 7.609375 -4.375 L 4.65625 -4.375 C 3.039062 -4.375 2.234375 -3.8125 2.234375 -2.6875 C 2.234375 -2.132812 2.441406 -1.695312 2.859375 -1.375 C 3.285156 -1.0625 3.875 -0.90625 4.625 -0.90625 Z M 4.625 -0.90625 "/></g></g></g><g fill="#ffffff" fill-opacity="1"><g transform="translate(512.092895, 327.66343)"><g><path d="M 6.625 -9.5 C 7.507812 -9.5 8.3125 -9.296875 9.03125 -8.890625 C 9.75 -8.492188 10.3125 -7.929688 10.71875 -7.203125 C 11.125 -6.472656 11.328125 -5.644531 11.328125 -4.71875 C 11.328125 -3.78125 11.125 -2.945312 10.71875 -2.21875 C 10.3125 -1.488281 9.75 -0.921875 9.03125 -0.515625 C 8.3125 -0.109375 7.507812 0.09375 6.625 0.09375 C 5.84375 0.09375 5.132812 -0.0703125 4.5 -0.40625 C 3.875 -0.738281 3.375 -1.222656 3 -1.859375 L 3 0 L 1.78125 0 L 1.78125 -13.296875 L 3.046875 -13.296875 L 3.046875 -7.640625 C 3.441406 -8.242188 3.945312 -8.703125 4.5625 -9.015625 C 5.175781 -9.335938 5.863281 -9.5 6.625 -9.5 Z M 6.546875 -1.046875 C 7.203125 -1.046875 7.796875 -1.195312 8.328125 -1.5 C 8.867188 -1.800781 9.289062 -2.234375 9.59375 -2.796875 C 9.894531 -3.359375 10.046875 -4 10.046875 -4.71875 C 10.046875 -5.425781 9.894531 -6.0625 9.59375 -6.625 C 9.289062 -7.1875 8.867188 -7.617188 8.328125 -7.921875 C 7.796875 -8.234375 7.203125 -8.390625 6.546875 -8.390625 C 5.867188 -8.390625 5.265625 -8.234375 4.734375 -7.921875 C 4.203125 -7.617188 3.785156 -7.1875 3.484375 -6.625 C 3.179688 -6.0625 3.03125 -5.425781 3.03125 -4.71875 C 3.03125 -4 3.179688 -3.359375 3.484375 -2.796875 C 3.785156 -2.234375 4.203125 -1.800781 4.734375 -1.5 C 5.265625 -1.195312 5.867188 -1.046875 6.546875 -1.046875 Z M 6.546875 -1.046875 "/></g></g></g><g fill="#ffffff" fill-opacity="1"><g transform="translate(524.241335, 327.66343)"><g><path d="M 1.78125 -9.421875 L 3.046875 -9.421875 L 3.046875 0 L 1.78125 0 Z M 2.421875 -11.484375 C 2.160156 -11.484375 1.9375 -11.570312 1.75 -11.75 C 1.570312 -11.9375 1.484375 -12.15625 1.484375 -12.40625 C 1.484375 -12.644531 1.570312 -12.851562 1.75 -13.03125 C 1.9375 -13.207031 2.160156 -13.296875 2.421875 -13.296875 C 2.679688 -13.296875 2.898438 -13.207031 3.078125 -13.03125 C 3.265625 -12.863281 3.359375 -12.660156 3.359375 -12.421875 C 3.359375 -12.160156 3.265625 -11.9375 3.078125 -11.75 C 2.898438 -11.570312 2.679688 -11.484375 2.421875 -11.484375 Z M 2.421875 -11.484375 "/></g></g></g><g fill="#ffffff" fill-opacity="1"><g transform="translate(529.061289, 327.66343)"><g><path d="M 10.375 -13.296875 L 10.375 0 L 9.15625 0 L 9.15625 -1.859375 C 8.769531 -1.222656 8.265625 -0.738281 7.640625 -0.40625 C 7.015625 -0.0703125 6.304688 0.09375 5.515625 0.09375 C 4.628906 0.09375 3.828125 -0.109375 3.109375 -0.515625 C 2.398438 -0.921875 1.84375 -1.488281 1.4375 -2.21875 C 1.03125 -2.945312 0.828125 -3.78125 0.828125 -4.71875 C 0.828125 -5.644531 1.03125 -6.472656 1.4375 -7.203125 C 1.84375 -7.929688 2.398438 -8.492188 3.109375 -8.890625 C 3.828125 -9.296875 4.628906 -9.5 5.515625 -9.5 C 6.285156 -9.5 6.976562 -9.335938 7.59375 -9.015625 C 8.207031 -8.703125 8.710938 -8.242188 9.109375 -7.640625 L 9.109375 -13.296875 Z M 5.625 -1.046875 C 6.28125 -1.046875 6.875 -1.195312 7.40625 -1.5 C 7.9375 -1.800781 8.351562 -2.234375 8.65625 -2.796875 C 8.96875 -3.359375 9.125 -4 9.125 -4.71875 C 9.125 -5.425781 8.96875 -6.0625 8.65625 -6.625 C 8.351562 -7.1875 7.9375 -7.617188 7.40625 -7.921875 C 6.875 -8.234375 6.28125 -8.390625 5.625 -8.390625 C 4.957031 -8.390625 4.359375 -8.234375 3.828125 -7.921875 C 3.296875 -7.617188 2.875 -7.1875 2.5625 -6.625 C 2.257812 -6.0625 2.109375 -5.425781 2.109375 -4.71875 C 2.109375 -4 2.257812 -3.359375 2.5625 -2.796875 C 2.875 -2.234375 3.296875 -1.800781 3.828125 -1.5 C 4.359375 -1.195312 4.957031 -1.046875 5.625 -1.046875 Z M 5.625 -1.046875 "/></g></g></g><g fill="#ffffff" fill-opacity="1"><g transform="translate(541.209729, 327.66343)"><g><path d="M 1.078125 -5.40625 L 5.765625 -5.40625 L 5.765625 -4.296875 L 1.078125 -4.296875 Z M 1.078125 -5.40625 "/></g></g></g><g fill="#ffffff" fill-opacity="1"><g transform="translate(548.054428, 327.66343)"><g><path d="M 6.578125 -9.5 C 7.765625 -9.5 8.707031 -9.15625 9.40625 -8.46875 C 10.101562 -7.78125 10.453125 -6.78125 10.453125 -5.46875 L 10.453125 0 L 9.171875 0 L 9.171875 -5.34375 C 9.171875 -6.320312 8.925781 -7.066406 8.4375 -7.578125 C 7.945312 -8.097656 7.25 -8.359375 6.34375 -8.359375 C 5.332031 -8.359375 4.53125 -8.054688 3.9375 -7.453125 C 3.34375 -6.847656 3.046875 -6.015625 3.046875 -4.953125 L 3.046875 0 L 1.78125 0 L 1.78125 -13.296875 L 3.046875 -13.296875 L 3.046875 -7.78125 C 3.390625 -8.332031 3.863281 -8.753906 4.46875 -9.046875 C 5.082031 -9.347656 5.785156 -9.5 6.578125 -9.5 Z M 6.578125 -9.5 "/></g></g></g><g fill="#ffffff" fill-opacity="1"><g transform="translate(560.184947, 327.66343)"><g><path d="M 5.078125 -9.5 C 6.304688 -9.5 7.25 -9.191406 7.90625 -8.578125 C 8.5625 -7.960938 8.890625 -7.050781 8.890625 -5.84375 L 8.890625 0 L 7.671875 0 L 7.671875 -1.46875 C 7.378906 -0.976562 6.957031 -0.59375 6.40625 -0.3125 C 5.851562 -0.0390625 5.191406 0.09375 4.421875 0.09375 C 3.367188 0.09375 2.53125 -0.15625 1.90625 -0.65625 C 1.289062 -1.164062 0.984375 -1.832031 0.984375 -2.65625 C 0.984375 -3.457031 1.269531 -4.101562 1.84375 -4.59375 C 2.425781 -5.082031 3.351562 -5.328125 4.625 -5.328125 L 7.609375 -5.328125 L 7.609375 -5.890625 C 7.609375 -6.703125 7.378906 -7.320312 6.921875 -7.75 C 6.472656 -8.175781 5.816406 -8.390625 4.953125 -8.390625 C 4.347656 -8.390625 3.769531 -8.289062 3.21875 -8.09375 C 2.675781 -7.894531 2.207031 -7.625 1.8125 -7.28125 L 1.234375 -8.21875 C 1.710938 -8.625 2.285156 -8.9375 2.953125 -9.15625 C 3.617188 -9.382812 4.328125 -9.5 5.078125 -9.5 Z M 4.625 -0.90625 C 5.34375 -0.90625 5.957031 -1.070312 6.46875 -1.40625 C 6.976562 -1.738281 7.359375 -2.210938 7.609375 -2.828125 L 7.609375 -4.375 L 4.65625 -4.375 C 3.039062 -4.375 2.234375 -3.8125 2.234375 -2.6875 C 2.234375 -2.132812 2.441406 -1.695312 2.859375 -1.375 C 3.285156 -1.0625 3.875 -0.90625 4.625 -0.90625 Z M 4.625 -0.90625 "/></g></g></g><g fill="#ffffff" fill-opacity="1"><g transform="translate(570.756598, 327.66343)"><g><path d="M 4.296875 0.09375 C 3.535156 0.09375 2.804688 -0.015625 2.109375 -0.234375 C 1.410156 -0.460938 0.863281 -0.742188 0.46875 -1.078125 L 1.046875 -2.078125 C 1.429688 -1.765625 1.921875 -1.507812 2.515625 -1.3125 C 3.117188 -1.113281 3.742188 -1.015625 4.390625 -1.015625 C 5.253906 -1.015625 5.890625 -1.148438 6.296875 -1.421875 C 6.710938 -1.691406 6.921875 -2.070312 6.921875 -2.5625 C 6.921875 -2.90625 6.804688 -3.175781 6.578125 -3.375 C 6.347656 -3.570312 6.0625 -3.722656 5.71875 -3.828125 C 5.375 -3.929688 4.914062 -4.03125 4.34375 -4.125 C 3.570312 -4.269531 2.953125 -4.414062 2.484375 -4.5625 C 2.023438 -4.707031 1.628906 -4.957031 1.296875 -5.3125 C 0.972656 -5.675781 0.8125 -6.175781 0.8125 -6.8125 C 0.8125 -7.601562 1.140625 -8.25 1.796875 -8.75 C 2.453125 -9.25 3.363281 -9.5 4.53125 -9.5 C 5.144531 -9.5 5.753906 -9.414062 6.359375 -9.25 C 6.972656 -9.09375 7.476562 -8.882812 7.875 -8.625 L 7.3125 -7.59375 C 6.53125 -8.132812 5.601562 -8.40625 4.53125 -8.40625 C 3.71875 -8.40625 3.101562 -8.257812 2.6875 -7.96875 C 2.28125 -7.6875 2.078125 -7.3125 2.078125 -6.84375 C 2.078125 -6.488281 2.191406 -6.203125 2.421875 -5.984375 C 2.660156 -5.765625 2.953125 -5.601562 3.296875 -5.5 C 3.640625 -5.40625 4.117188 -5.304688 4.734375 -5.203125 C 5.484375 -5.054688 6.082031 -4.910156 6.53125 -4.765625 C 6.988281 -4.617188 7.378906 -4.375 7.703125 -4.03125 C 8.023438 -3.6875 8.1875 -3.207031 8.1875 -2.59375 C 8.1875 -1.769531 7.84375 -1.113281 7.15625 -0.625 C 6.46875 -0.144531 5.515625 0.09375 4.296875 0.09375 Z M 4.296875 0.09375 "/></g></g></g><g fill="#ffffff" fill-opacity="1"><g transform="translate(579.518526, 327.66343)"><g><path d="M 5.078125 -9.5 C 6.304688 -9.5 7.25 -9.191406 7.90625 -8.578125 C 8.5625 -7.960938 8.890625 -7.050781 8.890625 -5.84375 L 8.890625 0 L 7.671875 0 L 7.671875 -1.46875 C 7.378906 -0.976562 6.957031 -0.59375 6.40625 -0.3125 C 5.851562 -0.0390625 5.191406 0.09375 4.421875 0.09375 C 3.367188 0.09375 2.53125 -0.15625 1.90625 -0.65625 C 1.289062 -1.164062 0.984375 -1.832031 0.984375 -2.65625 C 0.984375 -3.457031 1.269531 -4.101562 1.84375 -4.59375 C 2.425781 -5.082031 3.351562 -5.328125 4.625 -5.328125 L 7.609375 -5.328125 L 7.609375 -5.890625 C 7.609375 -6.703125 7.378906 -7.320312 6.921875 -7.75 C 6.472656 -8.175781 5.816406 -8.390625 4.953125 -8.390625 C 4.347656 -8.390625 3.769531 -8.289062 3.21875 -8.09375 C 2.675781 -7.894531 2.207031 -7.625 1.8125 -7.28125 L 1.234375 -8.21875 C 1.710938 -8.625 2.285156 -8.9375 2.953125 -9.15625 C 3.617188 -9.382812 4.328125 -9.5 5.078125 -9.5 Z M 4.625 -0.90625 C 5.34375 -0.90625 5.957031 -1.070312 6.46875 -1.40625 C 6.976562 -1.738281 7.359375 -2.210938 7.609375 -2.828125 L 7.609375 -4.375 L 4.65625 -4.375 C 3.039062 -4.375 2.234375 -3.8125 2.234375 -2.6875 C 2.234375 -2.132812 2.441406 -1.695312 2.859375 -1.375 C 3.285156 -1.0625 3.875 -0.90625 4.625 -0.90625 Z M 4.625 -0.90625 "/></g></g></g><g fill="#ffffff" fill-opacity="1"><g transform="translate(590.090177, 327.66343)"><g><path d="M 6.578125 -9.5 C 7.765625 -9.5 8.707031 -9.15625 9.40625 -8.46875 C 10.101562 -7.78125 10.453125 -6.78125 10.453125 -5.46875 L 10.453125 0 L 9.171875 0 L 9.171875 -5.34375 C 9.171875 -6.320312 8.925781 -7.066406 8.4375 -7.578125 C 7.945312 -8.097656 7.25 -8.359375 6.34375 -8.359375 C 5.332031 -8.359375 4.53125 -8.054688 3.9375 -7.453125 C 3.34375 -6.847656 3.046875 -6.015625 3.046875 -4.953125 L 3.046875 0 L 1.78125 0 L 1.78125 -9.421875 L 3 -9.421875 L 3 -7.6875 C 3.34375 -8.257812 3.820312 -8.703125 4.4375 -9.015625 C 5.050781 -9.335938 5.765625 -9.5 6.578125 -9.5 Z M 6.578125 -9.5 "/></g></g></g><g fill="#ffffff" fill-opacity="1"><g transform="translate(602.220695, 327.66343)"><g><path d="M 1.078125 -5.40625 L 5.765625 -5.40625 L 5.765625 -4.296875 L 1.078125 -4.296875 Z M 1.078125 -5.40625 "/></g></g></g><g fill="#ffffff" fill-opacity="1"><g transform="translate(609.065395, 327.66343)"><g><path d="M 3 -7.578125 C 3.289062 -8.210938 3.734375 -8.691406 4.328125 -9.015625 C 4.921875 -9.335938 5.65625 -9.5 6.53125 -9.5 L 6.53125 -8.265625 L 6.21875 -8.28125 C 5.226562 -8.28125 4.453125 -7.972656 3.890625 -7.359375 C 3.328125 -6.753906 3.046875 -5.898438 3.046875 -4.796875 L 3.046875 0 L 1.78125 0 L 1.78125 -9.421875 L 3 -9.421875 Z M 3 -7.578125 "/></g></g></g><g fill="#ffffff" fill-opacity="1"><g transform="translate(616.250533, 327.66343)"><g><path d="M 5.078125 -9.5 C 6.304688 -9.5 7.25 -9.191406 7.90625 -8.578125 C 8.5625 -7.960938 8.890625 -7.050781 8.890625 -5.84375 L 8.890625 0 L 7.671875 0 L 7.671875 -1.46875 C 7.378906 -0.976562 6.957031 -0.59375 6.40625 -0.3125 C 5.851562 -0.0390625 5.191406 0.09375 4.421875 0.09375 C 3.367188 0.09375 2.53125 -0.15625 1.90625 -0.65625 C 1.289062 -1.164062 0.984375 -1.832031 0.984375 -2.65625 C 0.984375 -3.457031 1.269531 -4.101562 1.84375 -4.59375 C 2.425781 -5.082031 3.351562 -5.328125 4.625 -5.328125 L 7.609375 -5.328125 L 7.609375 -5.890625 C 7.609375 -6.703125 7.378906 -7.320312 6.921875 -7.75 C 6.472656 -8.175781 5.816406 -8.390625 4.953125 -8.390625 C 4.347656 -8.390625 3.769531 -8.289062 3.21875 -8.09375 C 2.675781 -7.894531 2.207031 -7.625 1.8125 -7.28125 L 1.234375 -8.21875 C 1.710938 -8.625 2.285156 -8.9375 2.953125 -9.15625 C 3.617188 -9.382812 4.328125 -9.5 5.078125 -9.5 Z M 4.625 -0.90625 C 5.34375 -0.90625 5.957031 -1.070312 6.46875 -1.40625 C 6.976562 -1.738281 7.359375 -2.210938 7.609375 -2.828125 L 7.609375 -4.375 L 4.65625 -4.375 C 3.039062 -4.375 2.234375 -3.8125 2.234375 -2.6875 C 2.234375 -2.132812 2.441406 -1.695312 2.859375 -1.375 C 3.285156 -1.0625 3.875 -0.90625 4.625 -0.90625 Z M 4.625 -0.90625 "/></g></g></g><g fill="#ffffff" fill-opacity="1"><g transform="translate(626.822184, 327.66343)"><g><path d="M 4.890625 -12.3125 C 4.335938 -12.3125 3.921875 -12.160156 3.640625 -11.859375 C 3.359375 -11.566406 3.21875 -11.125 3.21875 -10.53125 L 3.21875 -9.421875 L 6.125 -9.421875 L 6.125 -8.359375 L 3.265625 -8.359375 L 3.265625 0 L 1.984375 0 L 1.984375 -8.359375 L 0.296875 -8.359375 L 0.296875 -9.421875 L 1.984375 -9.421875 L 1.984375 -10.59375 C 1.984375 -11.445312 2.234375 -12.125 2.734375 -12.625 C 3.234375 -13.132812 3.9375 -13.390625 4.84375 -13.390625 C 5.195312 -13.390625 5.539062 -13.335938 5.875 -13.234375 C 6.207031 -13.128906 6.488281 -12.984375 6.71875 -12.796875 L 6.296875 -11.84375 C 5.921875 -12.15625 5.453125 -12.3125 4.890625 -12.3125 Z M 4.890625 -12.3125 "/></g></g></g><g fill="#ffffff" fill-opacity="1"><g transform="translate(632.896398, 327.66343)"><g><path d="M 1.78125 -9.421875 L 3.046875 -9.421875 L 3.046875 0 L 1.78125 0 Z M 2.421875 -11.484375 C 2.160156 -11.484375 1.9375 -11.570312 1.75 -11.75 C 1.570312 -11.9375 1.484375 -12.15625 1.484375 -12.40625 C 1.484375 -12.644531 1.570312 -12.851562 1.75 -13.03125 C 1.9375 -13.207031 2.160156 -13.296875 2.421875 -13.296875 C 2.679688 -13.296875 2.898438 -13.207031 3.078125 -13.03125 C 3.265625 -12.863281 3.359375 -12.660156 3.359375 -12.421875 C 3.359375 -12.160156 3.265625 -11.9375 3.078125 -11.75 C 2.898438 -11.570312 2.679688 -11.484375 2.421875 -11.484375 Z M 2.421875 -11.484375 "/></g></g></g><g fill="#ffffff" fill-opacity="1"><g transform="translate(637.716352, 327.66343)"><g><path d="M 1.90625 0.09375 C 1.632812 0.09375 1.40625 0 1.21875 -0.1875 C 1.039062 -0.382812 0.953125 -0.617188 0.953125 -0.890625 C 0.953125 -1.171875 1.039062 -1.398438 1.21875 -1.578125 C 1.40625 -1.765625 1.632812 -1.859375 1.90625 -1.859375 C 2.164062 -1.859375 2.390625 -1.765625 2.578125 -1.578125 C 2.773438 -1.398438 2.875 -1.171875 2.875 -0.890625 C 2.875 -0.617188 2.773438 -0.382812 2.578125 -0.1875 C 2.390625 0 2.164062 0.09375 1.90625 0.09375 Z M 1.90625 0.09375 "/></g></g></g><g fill="#ffffff" fill-opacity="1"><g transform="translate(641.514977, 327.66343)"><g><path d="M 15.609375 -9.421875 L 12.046875 0 L 10.84375 0 L 7.875 -7.71875 L 4.890625 0 L 3.6875 0 L 0.140625 -9.421875 L 1.359375 -9.421875 L 4.3125 -1.421875 L 7.34375 -9.421875 L 8.4375 -9.421875 L 11.453125 -1.421875 L 14.4375 -9.421875 Z M 15.609375 -9.421875 "/></g></g></g><g fill="#ffffff" fill-opacity="1"><g transform="translate(657.264941, 327.66343)"><g><path d="M 9.984375 -4.3125 L 2.09375 -4.3125 C 2.164062 -3.332031 2.539062 -2.539062 3.21875 -1.9375 C 3.90625 -1.34375 4.769531 -1.046875 5.8125 -1.046875 C 6.394531 -1.046875 6.929688 -1.148438 7.421875 -1.359375 C 7.910156 -1.566406 8.332031 -1.875 8.6875 -2.28125 L 9.40625 -1.453125 C 8.988281 -0.953125 8.46875 -0.566406 7.84375 -0.296875 C 7.21875 -0.0351562 6.523438 0.09375 5.765625 0.09375 C 4.796875 0.09375 3.9375 -0.109375 3.1875 -0.515625 C 2.445312 -0.929688 1.867188 -1.503906 1.453125 -2.234375 C 1.035156 -2.960938 0.828125 -3.789062 0.828125 -4.71875 C 0.828125 -5.632812 1.023438 -6.457031 1.421875 -7.1875 C 1.828125 -7.914062 2.378906 -8.484375 3.078125 -8.890625 C 3.773438 -9.296875 4.5625 -9.5 5.4375 -9.5 C 6.300781 -9.5 7.078125 -9.296875 7.765625 -8.890625 C 8.460938 -8.484375 9.007812 -7.914062 9.40625 -7.1875 C 9.800781 -6.46875 10 -5.644531 10 -4.71875 Z M 5.4375 -8.40625 C 4.519531 -8.40625 3.753906 -8.113281 3.140625 -7.53125 C 2.523438 -6.957031 2.175781 -6.203125 2.09375 -5.265625 L 8.78125 -5.265625 C 8.695312 -6.203125 8.347656 -6.957031 7.734375 -7.53125 C 7.117188 -8.113281 6.351562 -8.40625 5.4375 -8.40625 Z M 5.4375 -8.40625 "/></g></g></g><g fill="#ffffff" fill-opacity="1"><g transform="translate(668.087447, 327.66343)"><g><path d="M 6.625 -9.5 C 7.507812 -9.5 8.3125 -9.296875 9.03125 -8.890625 C 9.75 -8.492188 10.3125 -7.929688 10.71875 -7.203125 C 11.125 -6.472656 11.328125 -5.644531 11.328125 -4.71875 C 11.328125 -3.78125 11.125 -2.945312 10.71875 -2.21875 C 10.3125 -1.488281 9.75 -0.921875 9.03125 -0.515625 C 8.3125 -0.109375 7.507812 0.09375 6.625 0.09375 C 5.84375 0.09375 5.132812 -0.0703125 4.5 -0.40625 C 3.875 -0.738281 3.375 -1.222656 3 -1.859375 L 3 0 L 1.78125 0 L 1.78125 -13.296875 L 3.046875 -13.296875 L 3.046875 -7.640625 C 3.441406 -8.242188 3.945312 -8.703125 4.5625 -9.015625 C 5.175781 -9.335938 5.863281 -9.5 6.625 -9.5 Z M 6.546875 -1.046875 C 7.203125 -1.046875 7.796875 -1.195312 8.328125 -1.5 C 8.867188 -1.800781 9.289062 -2.234375 9.59375 -2.796875 C 9.894531 -3.359375 10.046875 -4 10.046875 -4.71875 C 10.046875 -5.425781 9.894531 -6.0625 9.59375 -6.625 C 9.289062 -7.1875 8.867188 -7.617188 8.328125 -7.921875 C 7.796875 -8.234375 7.203125 -8.390625 6.546875 -8.390625 C 5.867188 -8.390625 5.265625 -8.234375 4.734375 -7.921875 C 4.203125 -7.617188 3.785156 -7.1875 3.484375 -6.625 C 3.179688 -6.0625 3.03125 -5.425781 3.03125 -4.71875 C 3.03125 -4 3.179688 -3.359375 3.484375 -2.796875 C 3.785156 -2.234375 4.203125 -1.800781 4.734375 -1.5 C 5.265625 -1.195312 5.867188 -1.046875 6.546875 -1.046875 Z M 6.546875 -1.046875 "/></g></g></g><g fill="#ffffff" fill-opacity="1"><g transform="translate(680.235887, 327.66343)"><g><path d="M 1.90625 0.09375 C 1.632812 0.09375 1.40625 0 1.21875 -0.1875 C 1.039062 -0.382812 0.953125 -0.617188 0.953125 -0.890625 C 0.953125 -1.171875 1.039062 -1.398438 1.21875 -1.578125 C 1.40625 -1.765625 1.632812 -1.859375 1.90625 -1.859375 C 2.164062 -1.859375 2.390625 -1.765625 2.578125 -1.578125 C 2.773438 -1.398438 2.875 -1.171875 2.875 -0.890625 C 2.875 -0.617188 2.773438 -0.382812 2.578125 -0.1875 C 2.390625 0 2.164062 0.09375 1.90625 0.09375 Z M 1.90625 0.09375 "/></g></g></g><g fill="#ffffff" fill-opacity="1"><g transform="translate(684.034513, 327.66343)"><g><path d="M 5.078125 -9.5 C 6.304688 -9.5 7.25 -9.191406 7.90625 -8.578125 C 8.5625 -7.960938 8.890625 -7.050781 8.890625 -5.84375 L 8.890625 0 L 7.671875 0 L 7.671875 -1.46875 C 7.378906 -0.976562 6.957031 -0.59375 6.40625 -0.3125 C 5.851562 -0.0390625 5.191406 0.09375 4.421875 0.09375 C 3.367188 0.09375 2.53125 -0.15625 1.90625 -0.65625 C 1.289062 -1.164062 0.984375 -1.832031 0.984375 -2.65625 C 0.984375 -3.457031 1.269531 -4.101562 1.84375 -4.59375 C 2.425781 -5.082031 3.351562 -5.328125 4.625 -5.328125 L 7.609375 -5.328125 L 7.609375 -5.890625 C 7.609375 -6.703125 7.378906 -7.320312 6.921875 -7.75 C 6.472656 -8.175781 5.816406 -8.390625 4.953125 -8.390625 C 4.347656 -8.390625 3.769531 -8.289062 3.21875 -8.09375 C 2.675781 -7.894531 2.207031 -7.625 1.8125 -7.28125 L 1.234375 -8.21875 C 1.710938 -8.625 2.285156 -8.9375 2.953125 -9.15625 C 3.617188 -9.382812 4.328125 -9.5 5.078125 -9.5 Z M 4.625 -0.90625 C 5.34375 -0.90625 5.957031 -1.070312 6.46875 -1.40625 C 6.976562 -1.738281 7.359375 -2.210938 7.609375 -2.828125 L 7.609375 -4.375 L 4.65625 -4.375 C 3.039062 -4.375 2.234375 -3.8125 2.234375 -2.6875 C 2.234375 -2.132812 2.441406 -1.695312 2.859375 -1.375 C 3.285156 -1.0625 3.875 -0.90625 4.625 -0.90625 Z M 4.625 -0.90625 "/></g></g></g><g fill="#ffffff" fill-opacity="1"><g transform="translate(694.606175, 327.66343)"><g><path d="M 6.625 -9.5 C 7.507812 -9.5 8.3125 -9.296875 9.03125 -8.890625 C 9.75 -8.492188 10.3125 -7.929688 10.71875 -7.203125 C 11.125 -6.472656 11.328125 -5.644531 11.328125 -4.71875 C 11.328125 -3.769531 11.125 -2.929688 10.71875 -2.203125 C 10.3125 -1.472656 9.75 -0.90625 9.03125 -0.5 C 8.320312 -0.101562 7.519531 0.09375 6.625 0.09375 C 5.863281 0.09375 5.175781 -0.0625 4.5625 -0.375 C 3.945312 -0.695312 3.441406 -1.164062 3.046875 -1.78125 L 3.046875 3.484375 L 1.78125 3.484375 L 1.78125 -9.421875 L 3 -9.421875 L 3 -7.5625 C 3.375 -8.1875 3.875 -8.664062 4.5 -9 C 5.132812 -9.332031 5.84375 -9.5 6.625 -9.5 Z M 6.546875 -1.046875 C 7.203125 -1.046875 7.796875 -1.195312 8.328125 -1.5 C 8.867188 -1.800781 9.289062 -2.234375 9.59375 -2.796875 C 9.894531 -3.359375 10.046875 -4 10.046875 -4.71875 C 10.046875 -5.425781 9.894531 -6.054688 9.59375 -6.609375 C 9.289062 -7.171875 8.867188 -7.609375 8.328125 -7.921875 C 7.796875 -8.234375 7.203125 -8.390625 6.546875 -8.390625 C 5.867188 -8.390625 5.265625 -8.234375 4.734375 -7.921875 C 4.203125 -7.609375 3.785156 -7.171875 3.484375 -6.609375 C 3.179688 -6.054688 3.03125 -5.425781 3.03125 -4.71875 C 3.03125 -4 3.179688 -3.359375 3.484375 -2.796875 C 3.785156 -2.234375 4.203125 -1.800781 4.734375 -1.5 C 5.265625 -1.195312 5.867188 -1.046875 6.546875 -1.046875 Z M 6.546875 -1.046875 "/></g></g></g><g fill="#ffffff" fill-opacity="1"><g transform="translate(706.754626, 327.66343)"><g><path d="M 6.625 -9.5 C 7.507812 -9.5 8.3125 -9.296875 9.03125 -8.890625 C 9.75 -8.492188 10.3125 -7.929688 10.71875 -7.203125 C 11.125 -6.472656 11.328125 -5.644531 11.328125 -4.71875 C 11.328125 -3.769531 11.125 -2.929688 10.71875 -2.203125 C 10.3125 -1.472656 9.75 -0.90625 9.03125 -0.5 C 8.320312 -0.101562 7.519531 0.09375 6.625 0.09375 C 5.863281 0.09375 5.175781 -0.0625 4.5625 -0.375 C 3.945312 -0.695312 3.441406 -1.164062 3.046875 -1.78125 L 3.046875 3.484375 L 1.78125 3.484375 L 1.78125 -9.421875 L 3 -9.421875 L 3 -7.5625 C 3.375 -8.1875 3.875 -8.664062 4.5 -9 C 5.132812 -9.332031 5.84375 -9.5 6.625 -9.5 Z M 6.546875 -1.046875 C 7.203125 -1.046875 7.796875 -1.195312 8.328125 -1.5 C 8.867188 -1.800781 9.289062 -2.234375 9.59375 -2.796875 C 9.894531 -3.359375 10.046875 -4 10.046875 -4.71875 C 10.046875 -5.425781 9.894531 -6.054688 9.59375 -6.609375 C 9.289062 -7.171875 8.867188 -7.609375 8.328125 -7.921875 C 7.796875 -8.234375 7.203125 -8.390625 6.546875 -8.390625 C 5.867188 -8.390625 5.265625 -8.234375 4.734375 -7.921875 C 4.203125 -7.609375 3.785156 -7.171875 3.484375 -6.609375 C 3.179688 -6.054688 3.03125 -5.425781 3.03125 -4.71875 C 3.03125 -4 3.179688 -3.359375 3.484375 -2.796875 C 3.785156 -2.234375 4.203125 -1.800781 4.734375 -1.5 C 5.265625 -1.195312 5.867188 -1.046875 6.546875 -1.046875 Z M 6.546875 -1.046875 "/></g></g></g><path stroke-linecap="butt" transform="matrix(0.75, 0, 0, 0.75, 80.126133, 99.191419)" fill="none" stroke-linejoin="miter" d="M 84.488079 37.171861 C 84.133913 37.260403 83.508913 37.307278 82.613079 37.307278 C 79.482871 37.307278 75.394329 36.723945 70.342245 35.562486 L 58.139119 32.677069 C 53.935994 31.828111 49.441202 30.999986 44.659951 30.197902 C 41.128701 29.526027 37.373492 29.192694 33.394325 29.192694 C 26.644325 29.192694 21.347449 31.026028 17.503699 34.692694 C 15.581824 36.52082 14.618282 38.869778 14.618282 41.729153 C 14.618282 44.369779 15.534949 47.52082 17.368282 51.187487 C 20.274533 50.828112 23.248491 50.651029 26.28495 50.651029 L 31.649534 50.651029 C 32.456825 51.005196 32.857867 52.281238 32.857867 54.473946 C 32.857867 57.333321 31.805784 59.208321 29.706825 60.104155 C 29.081825 60.192696 28.071408 60.239571 26.685992 60.239571 L 23.133908 60.239571 C 20.363074 60.239571 18.795366 62.765613 18.441199 67.817697 C 18.441199 70.093739 18.394324 73.515614 18.305783 78.078115 C 18.128699 86.614574 17.816199 95.218741 17.368282 103.890617 L 15.691199 133.999994 C 14.883907 139.411453 13.748491 145.822911 12.269324 153.244787 C 11.732865 154.901037 11.087032 155.723954 10.326615 155.723954 C 8.982865 155.723954 8.316198 151.23437 8.316198 142.249995 C 8.316198 130.536452 8.180782 117.572909 7.915157 103.354158 L 7.441198 82.098948 L 6.639115 61.916655 C 5.65474 60.348946 3.331823 59.567696 -0.334844 59.567696 C -1.631719 59.567696 -2.636927 59.614571 -3.350469 59.703113 C -4.470261 57.781238 -5.027553 56.036446 -5.027553 54.473946 C -5.027553 53.307279 -4.673386 52.348946 -3.954636 51.588529 C -3.777553 51.411446 -3.350469 51.140612 -2.683802 50.786446 C 0.0453644 50.786446 2.368281 50.916654 4.290156 51.187487 C 4.649531 51.187487 5.165157 51.322904 5.831823 51.588529 L 2.550573 41.729153 C 1.253698 39.807278 0.602656 37.057278 0.602656 33.484361 C 0.602656 27.624986 4.71724 23.739569 12.941199 21.817693 C 17.993283 20.60936 23.045366 20.005193 28.09745 20.005193 L 31.113075 20.005193 C 31.826617 20.182277 32.321409 20.276027 32.587034 20.276027 C 41.753701 21.302068 49.35266 22.64061 55.389119 24.29686 C 59.680786 25.458319 64.170369 27.135402 68.868286 29.328111 C 70.519328 29.640611 73.628704 30.645819 78.185996 32.343736 C 83.238079 34.177069 85.764121 35.562486 85.764121 36.499986 C 85.764121 36.859361 85.337038 37.08332 84.488079 37.171861 Z M 92.534955 53.062488 C 92.26933 54.005196 91.753705 54.854154 90.993288 55.609363 C 90.904747 55.744779 90.680788 55.968738 90.321413 56.281238 C 86.92558 55.567696 82.477663 54.895821 76.977662 54.270821 C 69.649537 53.374988 63.701619 52.932279 59.144327 52.932279 C 51.451618 52.932279 46.378701 53.937488 43.920368 55.947904 C 44.456826 67.479155 44.72766 75.708323 44.72766 80.62499 C 44.72766 92.874991 44.076618 101.588533 42.779743 106.776033 C 47.920368 104.989575 51.764118 103.53645 54.316202 102.416658 C 62.404744 98.885408 68.550578 93.812491 72.753703 87.192699 C 74.675579 84.197907 75.63912 81.765615 75.63912 79.885406 C 75.63912 79.171865 75.503704 78.677073 75.238079 78.411448 C 74.878704 78.010406 74.274537 78.010406 73.425578 78.411448 C 73.066203 78.677073 71.748495 79.640615 69.467245 81.291656 C 69.290161 81.473948 67.993286 82.682282 65.581828 84.916657 C 64.685994 85.807282 63.232869 86.369782 61.222453 86.59374 C 59.212036 86.859365 57.446411 85.651032 55.925577 82.96874 C 54.404744 80.286448 53.97766 78.140615 54.649535 76.531239 C 55.993285 73.312489 58.581827 71.192697 62.430786 70.161447 C 64.930786 69.401031 68.685995 69.020822 73.696412 69.020822 C 81.024537 69.020822 85.295371 70.276031 86.503705 72.776031 C 87.217246 74.296864 87.576621 76.218739 87.576621 78.546865 C 87.576621 85.072907 83.727663 91.911449 76.040162 99.062491 C 72.10787 102.776033 65.066203 106.885408 54.920369 111.401034 C 50.316202 113.458326 44.16516 115.380201 36.477659 117.166659 C 35.493284 117.390618 34.712034 117.505201 34.1287 117.505201 C 31.764117 117.505201 30.576617 116.276034 30.576617 113.817701 C 30.576617 112.338534 30.800575 111.203117 31.248492 110.395825 C 33.435992 104.807283 34.53495 95.197908 34.53495 81.56249 C 34.53495 74.187489 34.1287 66.520822 33.326617 58.562488 C 31.764117 57.442696 29.279742 56.749988 25.883908 56.484363 C 25.613075 56.213529 25.435991 55.989571 25.34745 55.812488 C 24.363075 54.427071 23.873491 52.729154 23.873491 50.718737 C 23.873491 50.046862 24.139116 49.395821 24.675575 48.770821 L 25.482866 48.036446 C 26.956825 47.67707 28.925575 48.234362 31.383909 49.713529 C 32.232867 50.203112 33.394325 50.963529 34.868284 51.989571 C 37.149534 50.604154 39.649534 49.531237 42.378701 48.770821 C 47.519326 47.296862 57.508911 46.557279 72.352662 46.557279 C 74.810995 44.682279 76.040162 43.317695 76.040162 42.468737 C 76.040162 41.307278 74.430787 39.921862 71.212037 38.312486 C 67.191203 36.343736 63.029744 35.359361 58.738077 35.359361 L 53.644327 35.359361 C 52.347452 35.359361 50.60266 35.249986 48.41516 35.026028 L 40.904743 34.218736 C 40.722451 34.130194 40.477659 34.088528 40.165159 34.088528 C 39.628701 34.088528 38.790159 34.234361 37.649534 34.520819 C 36.508909 34.812486 35.717242 34.958319 35.269326 34.958319 C 33.883909 34.958319 33.1912 34.218736 33.1912 32.744778 C 33.1912 31.942694 34.555784 31.182278 37.284951 30.463527 C 37.774534 30.374986 38.498492 30.296861 39.462034 30.229152 C 40.425576 30.166652 43.920368 30.052069 49.956827 29.895819 C 55.993285 29.739569 61.488078 29.661444 66.45162 29.661444 L 69.873495 29.661444 C 70.587037 29.796861 71.07662 29.864569 71.347453 29.864569 C 75.01412 30.354152 77.227662 30.734361 77.982871 30.999986 C 81.738079 32.166653 83.618288 34.557278 83.618288 38.17707 C 83.618288 40.812487 82.701621 43.744779 80.868287 46.963529 L 92.404747 47.901029 C 92.758913 48.390612 92.941205 49.239571 92.941205 50.447904 C 92.941205 51.255196 92.805788 52.124987 92.534955 53.062488 Z M 81.842246 133.901036 C 82.133912 134.546869 82.274538 135.812494 82.274538 137.687494 C 82.274538 139.432286 82.076621 140.546869 81.675579 141.041661 C 81.540162 141.130203 81.159954 141.177078 80.534954 141.177078 C 80.040162 141.177078 79.706829 141.083328 79.529746 140.906244 L 79.659954 143.052078 C 79.795371 144.302078 79.373496 145.020828 78.389121 145.197911 C 76.10787 145.197911 74.118287 144.994786 72.42037 144.593745 C 71.79537 144.281245 71.415162 143.499995 71.279745 142.249995 L 71.212037 137.822911 C 66.29537 133.619786 58.560994 131.520827 48.00891 131.520827 C 45.107868 131.520827 42.243284 131.786452 39.430784 132.32291 C 38.623492 132.499994 36.633909 132.927077 33.462034 133.598952 C 31.180784 134.135411 29.212033 134.401036 27.560992 134.401036 C 27.154742 134.312494 26.7537 133.10416 26.352658 130.781244 C 26.040158 128.812493 25.883908 127.317702 25.883908 126.286452 C 25.883908 123.828118 26.4412 122.265618 27.560992 121.593743 C 28.675575 120.921868 31.602659 120.588534 36.342242 120.588534 L 39.024534 120.588534 C 44.659951 120.588534 50.113077 121.348951 55.389119 122.869785 C 58.649536 123.807285 62.071411 125.151035 65.649536 126.890618 C 66.498495 127.296868 68.352661 128.16666 71.212037 129.505202 L 71.415162 100.604158 L 78.587037 97.520824 L 78.587037 103.088533 C 78.587037 105.546867 78.587037 106.776033 78.587037 106.776033 C 78.587037 107.890617 78.566204 109.322909 78.519329 111.0677 C 78.430787 120.765618 78.613079 127.895827 79.055787 132.458327 C 80.623496 132.770827 81.550579 133.249994 81.842246 133.901036 Z M 81.842246 133.901036 " stroke="#ffffff" stroke-width="10.30005" stroke-opacity="1" stroke-miterlimit="4"/><g fill="#366994" fill-opacity="1"><g transform="translate(80.126133, 199.691411)"><g><path d="M 63.375 -72.625 C 63.101562 -72.550781 62.632812 -72.515625 61.96875 -72.515625 C 59.613281 -72.515625 56.539062 -72.953125 52.75 -73.828125 L 43.609375 -76 C 40.453125 -76.632812 37.082031 -77.253906 33.5 -77.859375 C 30.84375 -78.359375 28.023438 -78.609375 25.046875 -78.609375 C 19.984375 -78.609375 16.007812 -77.234375 13.125 -74.484375 C 11.6875 -73.109375 10.96875 -71.347656 10.96875 -69.203125 C 10.96875 -67.222656 11.65625 -64.859375 13.03125 -62.109375 C 15.207031 -62.378906 17.4375 -62.515625 19.71875 -62.515625 L 23.734375 -62.515625 C 24.335938 -62.242188 24.640625 -61.285156 24.640625 -59.640625 C 24.640625 -57.492188 23.851562 -56.085938 22.28125 -55.421875 C 21.8125 -55.359375 21.054688 -55.328125 20.015625 -55.328125 L 17.34375 -55.328125 C 15.269531 -55.328125 14.097656 -53.429688 13.828125 -49.640625 C 13.828125 -47.929688 13.796875 -45.363281 13.734375 -41.9375 C 13.597656 -35.539062 13.363281 -29.085938 13.03125 -22.578125 L 11.765625 0 C 11.160156 4.050781 10.304688 8.863281 9.203125 14.4375 C 8.796875 15.675781 8.3125 16.296875 7.75 16.296875 C 6.738281 16.296875 6.234375 12.925781 6.234375 6.1875 C 6.234375 -2.59375 6.132812 -12.316406 5.9375 -22.984375 L 5.578125 -38.921875 L 4.984375 -54.0625 C 4.242188 -55.238281 2.5 -55.828125 -0.25 -55.828125 C -1.21875 -55.828125 -1.972656 -55.789062 -2.515625 -55.71875 C -3.347656 -57.164062 -3.765625 -58.472656 -3.765625 -59.640625 C -3.765625 -60.515625 -3.5 -61.238281 -2.96875 -61.8125 C -2.832031 -61.945312 -2.515625 -62.144531 -2.015625 -62.40625 C 0.0351562 -62.40625 1.78125 -62.304688 3.21875 -62.109375 C 3.488281 -62.109375 3.875 -62.007812 4.375 -61.8125 L 1.90625 -69.203125 C 0.9375 -70.640625 0.453125 -72.703125 0.453125 -75.390625 C 0.453125 -79.785156 3.535156 -82.703125 9.703125 -84.140625 C 13.492188 -85.046875 17.285156 -85.5 21.078125 -85.5 L 23.34375 -85.5 C 23.875 -85.363281 24.238281 -85.296875 24.4375 -85.296875 C 31.3125 -84.523438 37.015625 -83.519531 41.546875 -82.28125 C 44.765625 -81.40625 48.132812 -80.144531 51.65625 -78.5 C 52.894531 -78.269531 55.222656 -77.519531 58.640625 -76.25 C 62.429688 -74.875 64.328125 -73.832031 64.328125 -73.125 C 64.328125 -72.851562 64.007812 -72.6875 63.375 -72.625 Z M 63.375 -72.625 "/></g></g></g><g fill="#366994" fill-opacity="1"><g transform="translate(100.695181, 199.691411)"><g><path d="M 48.828125 -60.703125 C 48.628906 -59.992188 48.242188 -59.359375 47.671875 -58.796875 C 47.609375 -58.691406 47.441406 -58.523438 47.171875 -58.296875 C 44.628906 -58.828125 41.296875 -59.328125 37.171875 -59.796875 C 31.671875 -60.460938 27.207031 -60.796875 23.78125 -60.796875 C 18.019531 -60.796875 14.21875 -60.046875 12.375 -58.546875 C 12.769531 -49.890625 12.96875 -43.71875 12.96875 -40.03125 C 12.96875 -30.84375 12.484375 -24.304688 11.515625 -20.421875 C 15.367188 -21.765625 18.253906 -22.851562 20.171875 -23.6875 C 26.234375 -26.332031 30.84375 -30.140625 34 -35.109375 C 35.4375 -37.347656 36.15625 -39.175781 36.15625 -40.59375 C 36.15625 -41.125 36.054688 -41.488281 35.859375 -41.6875 C 35.585938 -41.988281 35.132812 -41.988281 34.5 -41.6875 C 34.226562 -41.488281 33.238281 -40.769531 31.53125 -39.53125 C 31.394531 -39.394531 30.421875 -38.488281 28.609375 -36.8125 C 27.941406 -36.144531 26.851562 -35.726562 25.34375 -35.5625 C 23.832031 -35.351562 22.507812 -36.253906 21.375 -38.265625 C 20.238281 -40.285156 19.921875 -41.894531 20.421875 -43.09375 C 21.421875 -45.507812 23.363281 -47.101562 26.25 -47.875 C 28.125 -48.445312 30.941406 -48.734375 34.703125 -48.734375 C 40.203125 -48.734375 43.40625 -47.796875 44.3125 -45.921875 C 44.84375 -44.773438 45.109375 -43.332031 45.109375 -41.59375 C 45.109375 -36.695312 42.226562 -31.566406 36.46875 -26.203125 C 33.507812 -23.421875 28.226562 -20.335938 20.625 -16.953125 C 17.164062 -15.410156 12.554688 -13.96875 6.796875 -12.625 C 6.054688 -12.457031 5.46875 -12.375 5.03125 -12.375 C 3.25 -12.375 2.359375 -13.296875 2.359375 -15.140625 C 2.359375 -16.242188 2.523438 -17.097656 2.859375 -17.703125 C 4.503906 -21.890625 5.328125 -29.097656 5.328125 -39.328125 C 5.328125 -44.859375 5.023438 -50.609375 4.421875 -56.578125 C 3.253906 -57.421875 1.394531 -57.941406 -1.15625 -58.140625 C -1.351562 -58.335938 -1.488281 -58.503906 -1.5625 -58.640625 C -2.300781 -59.679688 -2.671875 -60.957031 -2.671875 -62.46875 C -2.671875 -62.96875 -2.46875 -63.453125 -2.0625 -63.921875 L -1.453125 -64.46875 C -0.347656 -64.738281 1.125 -64.320312 2.96875 -63.21875 C 3.601562 -62.851562 4.472656 -62.285156 5.578125 -61.515625 C 7.285156 -62.546875 9.164062 -63.347656 11.21875 -63.921875 C 15.070312 -65.023438 22.566406 -65.578125 33.703125 -65.578125 C 35.546875 -66.984375 36.46875 -68.007812 36.46875 -68.65625 C 36.46875 -69.519531 35.257812 -70.554688 32.84375 -71.765625 C 29.820312 -73.242188 26.703125 -73.984375 23.484375 -73.984375 L 19.671875 -73.984375 C 18.691406 -73.984375 17.378906 -74.066406 15.734375 -74.234375 L 10.109375 -74.84375 C 9.972656 -74.90625 9.789062 -74.9375 9.5625 -74.9375 C 9.15625 -74.9375 8.523438 -74.828125 7.671875 -74.609375 C 6.816406 -74.390625 6.222656 -74.28125 5.890625 -74.28125 C 4.847656 -74.28125 4.328125 -74.832031 4.328125 -75.9375 C 4.328125 -76.539062 5.347656 -77.113281 7.390625 -77.65625 C 7.765625 -77.71875 8.3125 -77.773438 9.03125 -77.828125 C 9.75 -77.878906 12.367188 -77.960938 16.890625 -78.078125 C 21.421875 -78.191406 25.546875 -78.25 29.265625 -78.25 L 31.828125 -78.25 C 32.367188 -78.15625 32.738281 -78.109375 32.9375 -78.109375 C 35.6875 -77.734375 37.347656 -77.445312 37.921875 -77.25 C 40.734375 -76.375 42.140625 -74.582031 42.140625 -71.875 C 42.140625 -69.894531 41.453125 -67.695312 40.078125 -65.28125 L 48.734375 -64.578125 C 49.003906 -64.203125 49.140625 -63.566406 49.140625 -62.671875 C 49.140625 -62.066406 49.035156 -61.410156 48.828125 -60.703125 Z M 40.8125 -0.078125 C 41.03125 0.410156 41.140625 1.359375 41.140625 2.765625 C 41.140625 4.078125 40.988281 4.914062 40.6875 5.28125 C 40.582031 5.34375 40.296875 5.375 39.828125 5.375 C 39.460938 5.375 39.210938 5.3125 39.078125 5.1875 L 39.171875 6.796875 C 39.273438 7.734375 38.957031 8.269531 38.21875 8.40625 C 36.507812 8.40625 35.019531 8.253906 33.75 7.953125 C 33.28125 7.710938 32.992188 7.125 32.890625 6.1875 L 32.84375 2.859375 C 29.15625 -0.285156 23.351562 -1.859375 15.4375 -1.859375 C 13.257812 -1.859375 11.113281 -1.65625 9 -1.25 C 8.394531 -1.125 6.90625 -0.804688 4.53125 -0.296875 C 2.820312 0.0976562 1.34375 0.296875 0.09375 0.296875 C -0.207031 0.234375 -0.507812 -0.671875 -0.8125 -2.421875 C -1.039062 -3.890625 -1.15625 -5.007812 -1.15625 -5.78125 C -1.15625 -7.625 -0.738281 -8.796875 0.09375 -9.296875 C 0.9375 -9.804688 3.132812 -10.0625 6.6875 -10.0625 L 8.703125 -10.0625 C 12.921875 -10.0625 17.007812 -9.488281 20.96875 -8.34375 C 23.414062 -7.644531 25.984375 -6.640625 28.671875 -5.328125 C 29.304688 -5.023438 30.695312 -4.375 32.84375 -3.375 L 33 -25.046875 L 38.375 -27.359375 L 38.375 -23.1875 C 38.375 -21.34375 38.375 -20.421875 38.375 -20.421875 C 38.375 -19.578125 38.359375 -18.503906 38.328125 -17.203125 C 38.253906 -9.921875 38.382812 -4.570312 38.71875 -1.15625 C 39.894531 -0.925781 40.59375 -0.566406 40.8125 -0.078125 Z M 40.8125 -0.078125 "/></g></g></g><g clip-path="url(#9d27891d1f)"><g clip-path="url(#86ac60abc7)"><path fill="url(#634f29c1d5)" d="M 1236.230469 131.015625 L 1236.230469 273.328125 L 1380.128906 273.328125 L 1380.128906 131.015625 Z M 1236.230469 131.015625 " fill-rule="nonzero"/></g></g><g clip-path="url(#b43c9f1ddb)"><g clip-path="url(#d823cc5fec)"><path fill="url(#4cea4d2619)" d="M 1281.25 176.882812 L 1281.25 319.214844 L 1425.148438 319.214844 L 1425.148438 176.882812 Z M 1281.25 176.882812 " fill-rule="nonzero"/></g></g></svg>